P2
100 87
255
0 0 0 0 0 0 0 0 0 0 0 0 0 0 0 0 0 0 0 0 0 0 0 0 0 0 0 0 0 0 0 0 0 0 0 0 0 0 0 0 0 0 0 0 0 0 0 0 0 0 0 0 0 0 0 0 0 0 0 0 0 0 0 0 0 0 0 0 0 0 0 0 0 0 0 0 0 0 0 0 0 0 0 0 0 0 0 0 0 0 0 0 0 0 0 0 0 0 0 0 
66 66 82 148 220 228 172 106 82 74 66 58 66 74 74 66 66 74 74 66 66 66 74 74 74 66 66 98 197 254 254 228 212 220 197 140 98 82 74 66 74 74 90 82 106 164 164 115 98 106 98 74 74 90 90 74 74 74 74 74 74 90 74 74 90 90 74 74 74 90 82 66 74 74 106 164 228 254 254 237 179 132 90 74 74 74 74 74 66 74 90 90 74 74 90 106 106 132 123 132 
8 8 49 115 97 106 66 8 8 0 8 16 8 0 8 0 8 16 0 14 22 22 8 0 8 0 0 24 82 90 26 33 56 89 66 24 8 16 8 8 0 8 8 0 8 66 74 74 42 33 16 8 16 8 16 16 16 0 8 16 16 24 0 0 8 8 0 0 16 0 8 24 32 32 58 91 81 67 97 91 58 32 0 8 24 0 0 8 8 24 32 48 16 0 0 0 16 24 32 58 
16 41 123 130 89 73 32 0 8 32 8 0 8 8 16 16 8 8 0 6 0 6 8 8 8 16 32 48 74 81 9 34 56 41 33 16 8 0 8 8 8 16 8 16 16 40 57 74 64 82 66 24 0 8 0 0 24 24 8 0 0 0 16 8 8 0 8 22 22 38 24 16 0 40 89 122 57 89 47 42 32 16 0 0 8 0 0 8 16 16 0 16 16 16 8 32 24 0 0 32 
16 74 122 66 89 74 40 8 8 8 8 14 14 6 0 8 0 0 0 6 14 14 0 0 0 0 0 48 98 90 9 34 64 74 57 24 8 0 8 0 16 16 16 8 0 8 16 49 74 66 58 74 58 41 24 8 8 8 16 16 8 16 16 16 8 8 16 6 0 6 0 16 48 98 99 66 98 64 33 34 32 0 0 0 0 16 16 24 32 32 16 16 24 16 8 0 8 8 24 24 
66 122 81 58 73 41 8 0 0 0 16 6 0 6 0 0 0 0 0 8 8 0 8 8 6 6 22 82 122 57 0 26 64 74 24 0 0 0 14 14 6 0 8 0 8 16 16 0 16 49 82 90 58 42 50 50 25 8 0 8 16 16 0 8 8 0 16 14 14 14 16 32 32 81 89 82 72 24 17 17 32 24 24 24 24 16 0 16 0 8 24 16 0 8 24 16 8 16 16 0 
25 73 25 56 73 32 8 8 16 14 14 14 6 6 8 14 22 14 0 0 8 8 8 0 6 0 14 40 91 57 0 42 88 82 32 8 8 0 14 0 6 6 14 14 0 0 8 0 8 0 8 24 50 66 57 49 50 41 24 16 8 16 16 16 16 0 8 8 16 8 0 32 74 131 67 89 49 34 26 25 16 16 0 16 24 16 8 24 16 8 8 8 0 0 8 8 8 8 0 16 
15 23 17 65 66 32 0 8 8 6 0 6 0 6 6 6 0 6 8 8 0 14 14 22 14 6 22 90 131 57 0 42 72 58 24 0 8 16 14 6 6 6 0 14 22 22 22 16 8 16 16 24 24 41 74 66 49 26 25 50 49 24 0 8 8 8 8 16 0 8 16 74 122 90 105 81 42 17 8 32 24 16 16 16 0 8 8 24 24 8 0 0 0 0 8 8 8 16 24 0 
7 40 25 73 81 49 8 8 16 14 0 6 14 6 0 6 0 6 14 22 8 6 0 0 14 14 0 48 106 42 0 50 97 74 40 8 8 8 6 0 0 0 14 6 0 0 6 8 8 8 0 8 8 8 32 25 58 58 58 49 25 32 16 8 0 8 24 16 0 0 24 97 105 82 74 26 0 25 32 24 0 0 16 16 8 32 32 32 8 8 8 8 8 8 8 8 0 8 8 8 
0 40 48 58 89 66 8 8 0 14 14 0 0 6 14 22 14 0 0 6 8 6 6 6 0 14 16 65 122 75 0 57 81 66 16 0 0 8 14 0 0 6 14 6 6 22 22 16 8 0 0 0 8 0 16 24 24 0 0 24 17 33 32 24 24 16 16 16 24 41 98 147 75 73 49 17 25 32 16 0 16 32 16 16 24 16 8 8 0 8 16 0 0 8 8 16 16 32 8 0 
25 25 33 33 97 122 49 8 0 0 22 14 0 6 6 0 6 6 6 6 0 0 8 14 14 6 0 32 89 82 9 75 107 49 8 0 8 8 6 6 0 14 16 16 8 16 0 8 0 8 8 8 16 8 0 8 0 0 16 24 24 16 8 0 16 33 24 16 42 74 97 82 42 105 74 33 16 16 0 0 8 16 8 16 16 16 16 32 8 0 8 24 8 8 0 0 0 0 0 8 
0 7 33 58 41 114 74 16 8 24 24 14 6 0 6 14 6 0 0 0 0 6 6 6 14 0 16 32 98 105 26 75 89 16 8 24 8 8 0 6 6 6 0 8 8 8 0 8 8 8 16 8 0 8 16 0 8 16 16 8 8 0 16 32 41 25 34 50 91 105 82 42 42 89 33 0 16 16 0 0 8 0 8 8 0 8 0 8 24 32 8 16 8 8 0 0 8 0 0 0 
15 15 15 40 42 106 122 49 8 16 8 8 6 6 6 8 0 0 0 0 0 6 0 0 14 16 16 8 66 88 57 131 89 16 0 8 16 22 22 22 8 0 0 8 24 16 0 0 0 0 16 16 8 8 8 0 8 16 16 8 0 8 8 0 32 50 41 47 64 57 17 9 33 89 66 40 24 16 16 0 8 16 16 8 0 0 8 16 8 16 0 16 16 8 0 0 16 8 8 0 
0 8 0 40 66 50 114 90 49 8 0 8 8 8 8 0 0 8 8 0 8 14 22 30 22 14 8 40 123 114 57 74 33 16 0 8 8 6 0 6 0 16 16 8 0 8 8 0 0 0 0 0 8 0 8 24 16 0 8 24 24 16 24 24 16 49 72 81 67 34 9 9 42 64 66 16 0 0 8 8 8 8 0 16 16 8 8 8 8 16 16 16 16 16 0 8 8 0 8 24 
40 33 7 7 33 58 73 97 82 24 8 8 0 0 8 8 8 0 8 0 0 8 0 14 0 6 16 24 66 97 57 81 50 24 8 16 24 22 14 22 16 16 8 8 8 8 32 16 16 8 0 8 8 16 8 0 16 8 8 0 8 16 0 0 0 41 72 67 9 0 9 9 33 64 82 49 24 16 8 0 0 8 0 8 8 0 0 0 8 0 8 8 0 16 16 16 8 0 0 8 
7 0 7 0 8 25 33 64 97 41 0 8 16 8 0 8 16 8 14 14 14 14 0 22 22 38 32 16 50 88 58 99 49 16 24 16 0 8 24 24 8 0 0 0 16 16 16 0 8 8 24 16 0 0 0 0 0 8 16 8 8 16 0 8 16 58 82 67 9 9 9 9 42 81 66 24 16 0 8 8 0 16 16 8 0 0 0 0 8 0 8 8 8 16 8 0 8 16 16 24 
15 15 15 0 15 32 56 50 105 98 32 0 16 24 8 0 0 8 14 0 0 14 8 0 8 8 0 16 58 105 73 89 24 0 32 32 8 0 0 16 8 24 24 16 16 0 16 16 24 8 0 8 24 24 24 8 0 0 8 32 24 16 0 0 0 41 82 57 0 0 0 0 9 82 114 66 32 0 0 8 16 8 8 8 8 8 8 0 0 8 16 16 8 0 0 0 0 8 8 24 
0 23 15 8 7 0 25 48 73 91 74 24 16 0 8 8 8 16 6 6 14 22 8 8 0 8 16 58 89 80 56 74 49 24 16 0 8 0 0 8 0 16 16 16 16 16 16 8 0 16 16 16 0 16 14 22 22 16 0 8 0 8 0 0 16 74 122 57 26 57 67 67 67 67 80 66 40 16 8 0 8 0 0 8 8 0 8 8 16 16 16 0 8 24 16 16 16 8 8 32 
23 16 7 18 25 25 32 23 48 80 122 74 49 24 16 24 32 48 40 40 48 24 16 16 8 32 41 74 65 66 82 89 66 33 24 24 24 8 0 8 16 8 0 8 8 16 0 8 8 8 0 8 8 16 6 0 6 16 8 8 8 8 0 0 24 74 97 50 98 122 107 97 97 114 105 114 74 32 32 16 16 16 8 8 16 8 8 0 8 0 8 8 8 8 0 0 16 24 24 32 
0 16 15 8 0 18 33 24 17 25 64 97 99 74 58 50 66 81 89 81 74 82 82 82 74 90 81 82 64 72 64 40 58 8 24 16 8 16 16 8 16 0 8 16 8 8 8 16 8 8 8 16 8 24 22 14 22 16 24 16 8 8 0 32 66 81 56 96 98 50 16 16 24 58 98 98 106 58 24 24 8 8 8 0 0 8 8 16 8 0 8 8 16 0 16 24 16 0 24 66 
23 16 25 25 8 8 25 33 26 17 25 58 105 98 82 66 74 82 82 89 89 91 81 58 58 73 66 66 58 58 66 64 66 42 32 16 0 16 24 8 16 32 16 16 16 16 16 32 24 8 0 8 8 0 8 0 16 0 8 8 16 16 8 32 58 57 106 81 42 16 16 24 0 0 32 82 107 98 89 74 41 24 32 24 0 0 0 8 0 8 16 8 24 8 16 0 8 24 58 66 
15 23 7 7 15 32 49 33 9 9 9 66 89 74 40 24 24 40 32 40 66 66 40 40 41 32 16 8 8 8 33 58 66 66 74 48 32 8 0 0 8 8 8 16 0 8 8 0 8 8 8 8 8 8 16 8 8 16 32 8 0 0 32 74 81 81 50 16 16 16 24 32 32 8 8 16 41 74 107 82 89 42 16 32 24 8 0 16 16 32 8 0 8 40 40 40 49 66 58 81 
0 15 8 23 16 23 41 25 9 9 57 98 89 32 0 8 16 16 0 8 24 16 0 8 8 16 16 16 16 24 16 16 34 47 81 82 57 8 8 32 24 0 0 16 14 14 14 16 16 16 0 8 8 16 8 0 0 8 0 8 0 32 66 58 82 66 16 16 16 8 8 0 0 0 8 0 16 24 57 98 115 81 58 33 41 32 32 16 0 0 24 41 58 66 33 32 32 24 32 41 
8 15 23 23 0 31 49 25 9 9 48 41 66 32 16 32 8 16 8 16 8 8 16 8 16 0 16 16 0 0 24 16 42 73 64 97 105 74 58 24 16 24 24 16 6 0 14 8 0 8 16 16 8 16 16 16 24 32 24 32 66 90 89 82 49 16 8 16 8 8 8 8 8 22 22 30 8 0 0 16 66 123 114 89 58 25 41 32 32 41 58 42 24 16 24 24 8 0 16 24 
8 0 15 16 16 41 50 26 9 17 48 64 74 32 0 8 22 22 14 14 0 8 8 0 16 16 8 8 8 8 16 16 16 58 73 75 80 65 74 90 82 74 58 57 63 54 46 40 16 0 8 16 8 16 0 8 8 0 0 41 66 47 50 16 0 0 24 16 8 0 8 0 8 22 0 14 0 8 8 16 16 58 98 89 105 64 50 42 50 58 82 49 32 8 8 8 8 8 8 0 
8 8 0 15 15 48 48 17 9 8 33 72 66 32 8 0 6 0 0 14 14 14 6 0 0 8 0 0 0 8 8 16 32 97 89 17 40 48 48 80 91 50 26 34 34 42 34 50 74 66 66 49 49 48 48 40 16 16 58 90 57 16 42 49 32 24 0 0 8 8 8 0 8 14 14 14 22 22 16 0 16 40 82 80 58 64 49 24 58 66 32 0 8 24 16 8 8 16 32 16 
7 23 15 8 7 41 25 9 0 17 66 80 58 8 8 8 14 0 0 14 14 0 6 0 14 14 14 8 16 32 32 0 8 66 97 17 34 33 65 81 66 32 32 32 24 32 32 49 58 66 58 50 50 42 34 82 97 90 89 47 24 50 42 33 24 24 22 22 38 8 22 22 22 8 8 6 0 14 16 8 8 24 66 80 34 50 49 39 42 32 8 8 8 8 8 0 8 0 0 0 
15 8 15 15 25 49 34 9 9 26 56 73 58 16 8 16 22 14 6 6 0 14 14 8 6 0 6 8 8 0 16 8 32 98 105 9 34 58 55 42 32 8 0 8 0 0 0 0 0 16 32 32 24 41 58 66 89 97 73 56 47 34 16 16 16 16 6 0 14 8 14 0 14 8 8 14 22 14 0 0 8 16 82 105 34 50 39 16 34 41 16 0 0 8 16 8 0 0 8 16 
15 0 8 7 18 23 34 0 0 26 73 66 32 0 0 24 0 0 16 38 22 14 8 8 14 14 14 16 16 16 16 16 0 66 105 9 26 97 81 58 24 8 8 8 24 24 16 16 16 8 8 32 32 8 8 24 66 98 99 64 57 50 16 8 8 16 22 22 22 40 22 6 14 8 16 16 8 16 8 8 8 16 74 88 34 67 72 41 34 16 16 0 0 0 16 16 8 0 0 0 
23 23 15 7 25 48 34 0 0 26 81 81 32 8 8 16 8 6 6 14 0 0 0 8 0 0 16 8 8 0 0 16 49 113 114 9 26 80 58 24 8 0 8 8 8 8 0 0 8 16 8 8 0 32 40 24 0 24 50 41 8 34 33 16 16 16 16 8 8 0 8 16 16 8 8 8 0 8 8 16 0 8 66 114 34 34 56 41 33 8 16 8 8 16 16 16 16 16 16 8 
18 15 7 15 56 57 9 0 0 26 96 90 32 0 8 0 8 14 0 6 8 0 0 8 8 16 16 0 8 16 16 32 40 89 97 34 26 97 90 24 8 0 0 8 0 0 0 8 8 0 0 16 32 16 0 16 0 24 33 74 66 33 25 16 0 0 16 0 8 0 0 16 8 16 32 16 0 8 0 16 0 8 57 113 42 34 90 74 42 24 32 24 16 14 6 6 8 8 8 24 
31 23 16 8 25 48 42 9 9 57 105 58 8 8 8 8 8 6 14 6 8 8 16 16 8 8 0 0 8 8 8 0 24 74 114 82 9 89 82 8 0 8 8 8 8 8 8 0 0 8 16 16 8 8 8 16 16 32 16 24 17 26 33 16 0 0 32 32 16 16 16 8 16 8 0 8 16 16 8 8 8 16 49 122 82 9 57 65 42 24 8 0 0 6 0 14 8 0 8 16 
24 8 16 15 25 33 58 34 17 66 74 49 8 0 0 8 16 8 0 0 0 8 0 8 16 24 8 8 8 8 8 16 8 32 82 122 26 89 98 32 8 8 8 0 8 8 14 14 6 0 16 16 8 8 8 8 0 8 16 32 16 17 16 32 16 0 8 0 0 16 24 8 0 16 24 16 0 0 8 8 0 0 24 90 73 9 57 80 50 32 16 16 16 6 6 6 8 8 8 8 
8 0 16 23 0 8 41 57 17 58 56 49 32 32 16 8 8 16 16 16 16 16 8 8 0 0 8 16 0 8 0 8 16 16 42 96 34 82 74 24 0 8 16 16 8 0 6 0 6 0 0 8 8 8 8 8 8 8 16 24 32 24 17 33 24 16 0 0 0 0 8 24 24 16 8 24 8 8 8 8 8 8 16 90 82 9 42 80 66 32 16 8 8 8 6 6 6 8 0 8 
8 24 24 15 7 7 18 48 26 75 89 50 16 0 16 0 8 0 8 16 24 16 0 8 8 8 24 8 8 8 0 8 0 16 50 88 34 82 89 41 0 8 8 0 0 8 6 6 6 8 8 8 8 0 8 8 0 0 8 8 8 24 25 34 16 24 8 0 0 0 8 8 0 0 0 8 0 16 32 16 8 16 40 105 82 9 34 73 66 32 8 0 8 8 6 0 14 16 8 8 
0 16 15 8 8 7 18 41 33 42 97 89 58 8 0 16 8 8 8 16 0 24 16 0 0 16 16 16 8 8 8 8 16 8 66 105 57 67 72 49 24 16 16 8 16 14 6 6 0 0 14 14 22 16 16 8 0 8 8 16 24 32 42 73 74 41 8 0 8 16 8 0 0 8 24 24 8 0 8 8 0 8 57 105 97 9 17 65 73 49 24 16 8 0 6 14 14 8 8 8 
24 31 16 8 8 15 8 25 48 58 49 65 82 58 41 32 16 8 16 16 8 16 16 16 24 24 8 8 8 0 0 24 32 32 50 82 75 67 131 74 8 16 0 8 8 6 0 6 0 0 6 0 6 0 8 8 8 8 0 0 8 32 74 64 56 58 32 8 0 0 8 0 8 8 0 8 8 8 16 16 24 8 8 74 106 17 17 66 81 49 8 8 0 0 0 0 0 0 0 8 
0 8 0 8 8 15 40 33 40 74 72 64 57 72 58 25 24 16 8 8 16 24 16 24 16 8 0 16 16 24 24 8 0 24 41 81 90 9 89 90 32 16 16 16 8 6 0 6 0 0 6 6 6 6 14 8 0 0 8 6 6 22 71 138 105 91 41 24 24 24 8 16 16 8 8 0 0 0 0 0 16 8 32 90 89 42 9 67 91 32 32 8 16 8 6 6 14 8 0 0 
0 23 32 16 24 8 40 41 72 74 41 33 50 58 66 50 42 33 16 16 8 16 0 8 8 8 8 24 0 16 16 16 0 0 24 66 148 57 82 99 40 8 0 6 6 6 6 6 0 0 0 0 6 0 6 0 0 0 0 6 0 0 22 74 114 122 89 33 0 16 8 16 16 0 16 8 8 8 8 0 8 8 32 74 97 67 0 57 114 58 16 0 0 8 6 0 14 14 8 0 
8 8 16 0 16 31 56 48 56 42 16 0 16 24 50 50 34 26 34 17 8 16 24 24 16 16 0 16 32 32 16 0 16 32 24 8 91 67 57 98 57 16 16 14 0 0 6 0 0 0 16 8 6 14 14 0 0 6 6 14 14 6 22 65 146 113 97 66 16 16 8 16 16 16 16 8 8 8 8 16 8 8 8 41 72 82 9 42 89 49 16 8 8 0 6 0 0 14 16 8 
8 23 24 16 24 41 40 72 58 25 24 16 8 0 0 16 25 42 58 34 16 8 8 8 16 32 16 8 0 8 8 24 24 0 24 25 81 66 50 131 90 32 0 22 22 14 6 14 8 0 0 0 6 14 22 8 0 6 0 6 6 0 6 16 58 106 97 122 58 16 8 0 16 0 0 0 0 16 0 8 0 0 24 41 74 97 17 42 105 66 24 8 8 8 14 14 14 14 0 0 
7 15 16 23 31 23 31 49 17 0 8 16 16 16 16 32 40 40 49 58 58 25 8 0 16 24 0 0 0 32 24 0 16 32 32 25 64 82 9 98 66 24 24 8 8 6 0 6 8 8 0 0 6 0 6 8 14 14 14 6 14 14 14 16 40 130 114 114 90 32 16 32 24 8 0 8 0 16 16 8 0 8 16 32 50 89 17 34 80 58 32 8 0 0 0 8 0 8 0 8 
15 23 15 7 15 10 39 50 33 32 24 24 24 32 16 16 0 8 24 49 66 66 50 33 8 8 24 24 8 0 8 16 32 32 24 25 57 73 9 98 114 50 24 24 16 22 14 14 0 0 0 8 6 0 6 14 6 0 22 22 16 0 0 8 16 74 130 82 147 82 8 8 8 8 8 0 0 0 0 8 8 0 0 32 58 89 17 34 106 81 49 8 16 16 16 14 14 14 16 8 
15 0 8 0 25 25 49 42 24 16 0 16 16 8 0 8 8 32 32 8 0 49 66 66 50 24 16 16 24 16 16 16 8 0 16 42 64 73 26 41 88 81 24 8 8 16 16 6 6 6 0 8 6 14 0 0 14 14 0 6 8 16 16 8 0 32 99 82 98 115 24 16 16 16 0 8 16 16 16 16 16 16 16 32 58 97 57 0 67 97 82 24 14 6 14 14 0 14 8 8 
23 15 23 25 40 23 64 66 32 8 0 0 16 0 6 22 30 16 8 8 8 32 40 49 50 42 34 17 16 8 0 8 16 24 66 74 55 49 50 42 49 99 66 24 0 0 8 14 0 6 16 16 6 0 6 6 6 6 6 6 0 0 0 8 8 32 74 97 57 114 66 32 0 8 0 8 0 8 8 0 8 8 24 33 42 57 57 0 34 72 74 32 14 0 6 14 14 14 16 41 
25 7 0 15 17 7 49 50 24 0 0 0 16 8 6 0 6 0 8 8 8 0 8 24 24 42 50 34 25 33 16 16 16 50 58 39 48 17 15 23 48 80 82 32 8 8 8 22 22 22 22 14 6 14 14 22 0 6 0 8 16 16 16 8 8 24 50 72 34 98 73 32 0 16 16 8 0 16 16 8 16 32 24 17 49 80 90 42 26 90 81 40 38 54 38 8 0 24 90 130 
0 15 15 25 49 31 49 66 40 16 16 16 16 8 14 14 6 16 8 8 16 16 8 24 40 48 66 66 74 81 42 34 81 91 39 23 8 18 18 25 33 48 122 113 74 16 0 0 0 8 14 0 14 0 8 14 6 14 16 32 8 8 32 16 8 24 74 97 34 66 81 66 16 0 16 8 0 0 8 16 40 49 25 17 17 32 80 97 98 73 114 74 32 16 0 8 40 98 122 89 
23 23 16 7 33 48 72 74 32 0 8 0 0 0 8 8 8 0 8 8 8 8 0 0 0 8 40 89 65 80 72 72 57 18 25 18 0 0 7 7 7 18 41 89 130 74 24 8 16 8 14 6 6 16 32 32 40 48 40 74 90 82 50 74 82 90 81 80 97 67 80 66 49 32 32 32 24 8 8 16 16 16 25 25 34 34 42 50 49 72 81 114 98 48 40 82 121 131 90 42 
0 0 23 15 49 66 131 82 16 8 16 16 8 6 6 14 0 0 0 0 0 16 16 8 0 8 32 89 66 48 41 25 18 25 32 25 15 15 7 0 15 40 40 40 72 122 97 74 66 57 82 74 57 65 66 74 82 66 58 73 89 66 42 58 58 50 42 50 81 89 81 56 73 66 26 17 24 24 16 16 16 24 16 24 24 32 32 49 66 90 81 56 106 99 114 147 105 67 17 0 
31 24 24 33 50 97 73 40 0 8 16 16 14 6 0 6 0 0 0 0 8 0 8 8 8 16 40 81 66 57 18 0 18 33 8 8 33 33 8 7 23 15 8 8 15 49 89 105 97 89 89 89 82 64 64 91 81 66 58 42 16 0 0 8 0 0 0 8 25 33 66 72 48 80 89 66 26 17 32 24 0 16 24 16 8 0 0 0 0 32 82 99 81 48 48 42 9 9 0 0 
24 0 16 48 66 88 66 40 8 8 0 0 6 0 0 6 0 8 0 0 8 8 22 22 14 16 48 123 66 40 49 31 39 23 0 8 8 0 8 15 8 0 0 23 25 33 50 48 58 81 97 114 114 97 82 74 32 24 8 8 24 32 24 24 16 16 16 25 16 0 50 89 66 41 72 41 9 8 24 0 8 16 16 8 24 32 32 16 8 8 32 82 97 26 9 9 0 0 0 0 
16 16 39 33 65 81 58 8 8 16 16 16 22 14 14 22 14 14 14 22 22 14 6 0 6 0 16 113 67 58 49 0 16 15 33 39 24 24 15 8 15 8 8 8 7 8 10 15 56 81 82 49 24 24 8 0 0 8 16 16 16 0 0 24 16 8 16 16 16 24 33 56 66 34 72 33 25 24 32 24 8 8 16 22 14 6 8 8 16 0 8 74 122 58 9 9 9 0 0 0 
23 15 23 33 32 50 24 8 8 16 0 6 6 14 0 6 0 0 0 0 0 6 0 0 6 16 65 123 58 65 47 24 24 23 15 16 0 24 24 0 16 39 39 23 23 15 10 56 99 82 32 8 0 16 8 8 8 16 16 0 0 0 8 32 16 8 0 8 0 24 26 74 66 34 89 58 49 16 8 8 8 16 8 6 0 6 8 16 16 8 8 40 97 81 9 0 9 0 0 0 
0 15 0 32 58 58 8 8 0 8 14 6 0 6 6 6 6 0 6 6 6 6 6 14 14 22 57 81 67 73 32 0 16 16 0 16 16 8 24 32 24 0 8 8 24 33 32 74 66 24 0 0 32 16 8 8 8 0 0 16 16 0 0 16 24 24 8 16 16 32 33 56 66 17 90 106 32 0 16 16 16 6 6 6 6 6 6 0 0 0 16 32 74 81 9 9 9 0 9 9 
0 32 25 39 42 40 8 8 16 14 6 0 0 0 0 6 6 6 0 0 6 8 0 6 0 14 57 81 50 56 39 8 8 24 23 24 16 16 0 24 16 16 0 0 16 40 64 57 33 16 0 24 24 8 0 8 8 0 8 24 24 0 0 0 8 24 8 16 8 24 58 89 75 9 57 91 58 16 0 8 8 6 0 6 6 0 6 6 14 6 0 32 105 105 34 0 0 0 9 0 
18 18 49 88 66 32 8 8 8 6 0 6 0 6 6 6 6 6 22 14 6 6 14 14 14 14 40 107 81 41 31 0 16 24 31 8 0 24 32 24 0 16 8 8 31 23 24 50 41 24 24 16 0 16 16 32 8 0 16 16 8 16 0 0 0 0 24 16 0 8 49 74 67 9 57 96 74 32 8 8 8 6 14 6 6 6 0 0 0 6 8 16 66 105 57 0 0 0 17 8 
25 48 40 73 81 49 16 0 16 6 0 6 6 6 0 6 0 6 14 6 0 6 0 0 22 16 32 90 88 49 31 8 16 8 8 0 16 49 23 0 0 31 23 0 8 15 39 58 24 0 16 40 24 16 0 8 8 24 0 0 16 16 16 0 0 0 16 8 8 16 49 81 81 9 26 72 50 41 24 0 8 0 0 0 6 0 6 6 6 6 0 16 41 82 57 0 0 0 34 17 
8 48 50 49 72 58 48 32 16 14 14 22 14 6 0 0 6 6 0 6 8 14 22 14 6 0 16 74 99 64 31 8 8 16 8 24 39 8 8 24 24 24 16 23 16 8 32 42 32 0 0 16 24 32 8 8 0 8 8 24 24 16 8 24 24 32 32 16 16 16 24 58 81 34 26 98 57 25 24 0 8 14 14 14 14 6 6 0 0 0 8 16 66 105 57 0 0 9 57 23 
0 23 33 25 80 66 49 16 0 8 8 14 0 6 6 0 6 6 6 6 0 0 0 0 0 0 8 32 42 47 23 16 16 16 8 8 8 16 16 8 0 24 15 15 0 8 32 50 49 24 0 0 0 0 16 24 8 8 0 8 8 8 8 16 16 8 8 0 8 16 49 90 72 34 0 82 72 41 32 8 0 14 0 6 0 0 6 14 6 6 6 22 66 105 57 0 0 9 58 10 
15 0 33 48 32 81 113 90 40 16 8 22 22 6 14 14 6 0 14 6 6 8 16 8 8 16 16 32 58 57 40 8 0 8 23 16 0 8 16 16 16 24 8 8 15 8 16 42 25 24 16 24 8 0 8 0 8 8 8 8 16 0 0 8 8 14 22 22 14 14 16 74 97 34 0 67 89 49 16 16 16 22 6 0 6 6 6 0 6 6 0 14 57 74 57 0 0 9 58 0 
23 15 23 8 15 48 89 99 58 16 0 8 8 0 6 14 14 8 6 0 14 16 8 0 0 0 8 32 58 48 56 41 23 8 8 23 16 23 8 16 8 16 15 15 7 8 24 50 16 24 32 24 0 0 8 8 0 0 8 0 16 8 0 0 0 6 0 6 0 6 16 66 97 17 0 50 81 66 16 0 0 6 14 14 6 8 22 14 14 14 6 22 66 130 75 0 0 34 58 0 
18 18 25 15 0 8 25 88 98 65 32 16 8 0 6 0 6 6 6 6 14 8 16 8 8 8 8 32 58 72 33 8 23 40 23 0 7 25 15 16 0 16 8 8 8 23 31 58 42 32 0 16 16 16 8 32 38 22 14 0 0 16 8 8 16 22 14 22 22 22 48 105 105 17 0 57 81 58 24 16 16 6 0 6 0 0 8 0 8 0 8 16 16 89 82 9 0 42 56 23 
0 18 15 23 23 15 8 25 74 74 41 16 0 8 6 0 0 0 6 8 8 0 16 32 32 8 0 49 89 81 41 25 32 33 8 16 16 23 32 24 24 40 47 32 24 41 64 65 74 57 24 8 0 8 8 16 6 0 14 8 8 8 0 0 0 0 0 0 8 8 24 82 82 9 9 75 74 49 0 16 16 22 0 14 16 8 8 8 16 16 8 8 24 82 97 9 17 42 48 0 
23 23 23 8 0 8 23 31 33 82 90 65 40 16 14 14 14 22 14 0 0 0 6 14 22 8 32 113 113 41 33 57 55 40 32 58 50 50 50 34 34 66 50 58 66 82 81 73 97 58 32 16 8 16 8 0 14 14 6 0 8 6 14 14 0 0 0 6 6 14 40 97 82 9 9 66 56 49 24 16 0 14 22 22 8 8 0 8 8 8 8 16 32 74 113 34 8 40 72 32 
0 0 8 8 16 16 8 8 33 56 74 66 49 24 16 16 8 0 8 8 16 0 6 0 14 24 74 122 75 81 82 58 50 58 58 58 32 32 32 41 57 40 16 24 41 90 106 113 89 89 66 32 16 16 0 0 8 8 8 0 0 6 0 6 6 6 6 6 0 14 32 82 73 9 9 82 74 41 24 16 8 0 0 0 0 8 0 8 16 32 16 0 16 58 88 42 42 81 57 0 
0 8 8 15 16 0 8 23 15 8 23 64 89 66 24 0 8 16 8 0 8 16 46 46 38 57 107 106 58 96 74 41 32 16 8 8 24 16 8 8 8 0 8 16 16 32 58 97 97 72 50 24 32 24 16 16 16 8 8 16 16 14 6 6 6 0 0 6 0 6 32 98 90 9 9 73 49 57 16 0 16 8 16 16 8 0 0 0 0 16 16 8 16 58 106 98 42 48 24 16 
23 33 0 8 31 31 31 8 0 0 8 7 49 107 74 24 0 0 0 8 0 8 0 0 40 107 131 57 97 89 42 16 0 16 8 0 0 8 8 16 16 8 8 0 8 16 24 74 82 57 73 50 41 0 0 8 8 0 8 0 0 0 8 0 6 6 0 14 22 6 16 90 89 9 9 82 106 57 0 0 16 16 0 0 8 8 8 8 8 0 16 8 24 32 66 88 42 73 39 0 
7 15 7 7 7 15 0 0 8 8 8 7 25 32 58 57 40 40 40 8 0 8 32 90 154 148 57 75 114 66 24 16 0 8 8 8 8 8 0 0 8 16 8 0 6 14 14 38 74 105 82 72 82 49 8 8 16 8 0 8 16 16 8 8 8 6 6 0 6 0 24 90 122 17 9 57 99 32 8 16 24 16 8 16 14 6 6 0 0 8 16 24 16 8 50 106 58 56 32 0 
0 0 7 0 15 33 23 23 16 23 7 7 15 24 49 73 81 73 98 98 90 90 90 99 89 34 67 139 105 48 16 24 24 16 14 14 22 22 22 6 6 6 6 14 6 0 0 14 30 41 82 98 105 115 32 0 8 32 16 0 16 8 16 8 0 0 14 14 6 0 8 57 114 26 9 48 106 74 24 0 8 8 8 8 6 0 6 8 16 16 0 8 24 8 24 81 66 65 39 8 
15 23 8 8 8 8 8 8 0 16 8 0 7 25 40 48 66 65 56 72 81 72 64 73 57 9 73 81 41 16 0 8 0 0 6 0 6 0 0 6 0 0 0 0 6 6 0 0 22 8 32 98 130 106 90 49 8 0 8 14 14 14 8 0 14 6 6 0 0 0 16 66 105 34 9 48 49 66 32 0 0 24 24 16 14 6 6 0 8 8 16 8 16 24 49 73 56 66 49 8 
8 16 16 39 31 8 0 16 8 8 8 7 15 41 48 42 58 49 25 15 25 48 33 48 26 57 122 82 32 16 8 6 14 14 6 0 14 14 14 0 0 0 14 6 6 14 14 14 14 16 16 24 82 122 89 82 49 24 16 6 0 6 0 0 6 0 6 14 22 8 16 66 88 34 9 57 72 58 32 16 16 16 0 8 16 14 22 22 24 16 8 0 8 8 32 66 48 40 56 8 
31 8 8 16 39 23 8 8 24 24 16 8 25 50 25 42 25 31 23 16 16 23 33 64 58 48 74 41 24 8 16 14 0 6 6 0 6 0 6 6 6 0 0 6 0 0 8 0 0 0 16 16 32 82 72 82 66 40 8 22 22 14 0 0 6 6 6 0 6 0 16 74 97 34 26 42 64 50 24 8 0 8 16 8 8 6 0 6 16 8 8 0 8 8 58 81 40 23 33 8 
24 16 24 8 16 24 16 0 8 16 24 33 56 48 34 58 64 39 8 8 16 24 24 47 49 58 91 49 16 0 8 6 6 6 14 14 14 14 6 0 6 6 6 22 16 8 8 16 16 24 16 8 0 41 90 98 91 90 24 8 0 8 0 8 0 0 6 6 14 8 16 74 89 26 57 31 56 73 58 24 16 0 16 0 16 22 14 14 8 0 8 8 16 24 49 89 67 67 48 8 
32 8 0 16 24 16 16 8 8 0 32 40 48 33 73 64 39 16 0 24 31 8 0 39 49 58 73 32 8 24 32 8 8 16 8 8 8 0 8 16 8 8 8 0 0 0 0 0 0 8 8 0 16 0 32 90 89 89 49 8 8 8 8 8 8 8 8 8 16 8 49 113 97 42 64 41 41 47 58 33 32 24 32 16 16 0 8 8 16 8 8 8 16 49 107 114 41 96 97 66 
24 24 24 16 16 0 8 8 8 24 57 48 58 73 40 16 8 0 0 8 16 16 16 39 33 49 106 74 16 8 8 8 8 0 0 8 8 8 8 8 8 0 0 0 8 16 16 8 8 8 8 0 0 0 8 41 66 64 105 40 0 0 8 8 0 0 8 8 0 16 66 97 67 73 48 8 0 16 33 42 34 25 32 49 40 16 8 16 8 0 0 8 24 66 97 57 114 106 58 16 
16 0 8 0 24 40 40 32 31 49 56 41 56 15 8 23 16 8 16 16 8 0 8 16 39 56 89 97 41 8 0 8 8 0 8 8 0 16 16 0 8 8 8 8 16 16 8 0 0 8 8 0 0 0 0 16 58 58 50 74 32 8 0 0 0 8 8 8 24 74 115 80 23 33 8 16 24 16 8 17 8 34 50 50 50 66 41 16 0 0 8 24 41 81 97 67 88 42 32 8 
32 8 16 16 16 16 0 15 40 49 33 25 23 8 8 23 8 16 0 8 16 24 16 0 24 48 58 122 105 32 8 8 24 16 14 14 14 16 0 14 14 14 0 0 8 0 8 8 8 8 0 0 0 16 0 0 32 74 40 66 58 40 16 24 24 16 0 0 16 90 114 57 82 48 0 8 8 0 16 41 33 17 8 55 65 64 66 58 58 58 32 16 58 114 75 90 81 50 32 0 
49 31 16 0 0 16 31 56 41 17 15 39 32 32 8 0 8 24 16 16 24 16 16 16 31 40 25 66 99 66 8 0 16 16 6 0 6 8 8 14 0 6 8 8 8 16 16 8 0 16 16 16 24 8 0 0 16 42 65 80 81 82 66 41 24 32 32 40 90 146 81 57 40 8 8 24 16 8 16 8 16 8 8 24 23 23 40 24 8 26 58 89 130 98 34 56 58 32 16 8 
18 33 41 31 16 0 8 31 56 56 33 32 0 8 16 16 8 8 8 0 8 8 16 24 23 40 25 57 97 105 66 16 16 0 6 6 22 8 8 14 14 22 16 24 16 24 16 0 0 0 0 0 0 0 16 24 32 50 47 48 47 57 64 81 74 50 16 50 114 106 34 48 25 23 23 24 0 16 16 0 0 0 0 24 32 39 8 24 32 40 47 48 58 26 34 64 74 41 8 0 
23 15 33 40 31 16 39 24 16 24 8 24 8 8 0 16 8 0 16 33 33 25 8 8 16 40 33 8 58 80 122 113 82 48 40 32 16 8 0 0 8 8 0 0 8 0 8 16 8 0 16 16 16 24 16 0 8 42 32 31 16 0 16 32 32 50 81 122 114 42 34 41 48 39 16 16 16 16 0 25 25 33 32 8 0 24 23 8 0 0 23 40 40 25 9 65 81 24 16 16 
0 7 16 25 25 39 24 0 0 24 8 8 8 0 8 16 8 8 24 25 17 34 42 24 41 48 33 9 40 23 25 64 91 89 89 90 40 16 16 16 16 8 8 8 16 8 8 0 8 8 8 8 0 16 8 16 33 58 24 16 8 8 0 24 16 8 31 65 41 8 25 33 31 16 0 16 16 16 8 25 0 9 24 32 16 24 24 16 40 40 40 49 40 33 8 75 106 41 16 0 
18 33 33 33 33 31 8 8 16 16 0 8 8 0 0 8 16 31 32 17 9 0 34 32 33 41 25 34 49 18 25 15 15 15 23 91 123 90 41 8 0 0 8 0 16 24 8 8 8 8 0 24 40 40 24 58 66 49 8 8 8 16 8 8 16 31 8 40 48 8 17 41 31 8 8 16 16 40 32 25 25 33 24 8 8 0 0 16 16 0 16 24 40 50 17 48 82 41 16 16 
0 8 7 25 56 64 31 24 31 8 0 8 16 24 16 8 8 8 16 25 26 26 50 32 15 49 25 50 41 15 15 8 8 8 8 33 48 82 105 82 40 8 16 16 16 24 0 0 8 8 0 8 8 25 34 58 8 8 23 23 8 8 0 8 8 16 16 33 40 8 25 65 31 8 16 23 24 16 0 16 8 0 0 8 8 0 0 16 32 16 16 16 23 50 42 48 97 82 40 0 
0 7 15 0 7 25 32 7 8 16 8 8 23 16 8 8 16 24 24 32 8 16 16 16 48 66 17 31 32 15 0 0 24 24 32 16 8 23 64 91 113 90 58 24 0 8 24 32 0 8 16 32 58 89 72 16 0 31 31 24 8 8 0 17 25 25 40 48 57 17 34 48 24 0 8 0 16 8 24 32 8 0 16 16 8 16 24 24 16 8 0 16 31 48 58 33 56 58 40 16 
25 7 0 7 25 18 25 15 16 16 16 16 0 0 16 23 16 0 16 39 24 16 24 31 40 33 17 41 25 8 8 31 24 0 8 8 16 16 31 39 31 47 74 90 66 24 0 16 40 49 49 58 58 39 23 31 31 31 16 0 8 8 16 25 0 9 32 80 66 9 34 65 49 31 8 24 40 40 24 8 24 24 24 16 0 0 0 0 16 16 16 8 8 15 49 48 64 66 41 0 
172 172 179 187 187 179 179 187 179 156 156 172 172 164 156 164 179 179 156 156 172 172 164 179 212 245 254 237 187 179 172 156 148 156 148 148 156 156 148 156 172 179 187 172 156 156 140 140 164 187 187 179 179 179 179 187 179 164 164 164 156 156 140 132 140 156 140 179 254 254 254 237 197 187 187 156 132 156 179 179 164 172 164 172 172 172 172 179 172 164 172 172 164 179 197 228 245 204 132 82 
0 0 0 0 0 0 0 0 0 0 0 0 0 0 0 0 0 0 0 0 0 0 0 0 0 0 0 0 0 0 0 0 0 0 0 0 0 0 0 0 0 0 0 0 0 0 0 0 0 0 0 0 0 0 0 0 0 0 0 0 0 0 0 0 0 0 0 0 0 0 0 0 0 0 0 0 0 0 0 0 0 0 0 0 0 0 0 0 0 0 0 0 0 0 0 0 0 0 0 0 
