P2
100 87
255
0 0 0 0 0 0 0 0 0 0 0 0 0 0 0 0 0 0 0 0 0 0 0 0 0 0 0 0 0 0 0 0 0 0 0 0 0 0 0 0 0 0 0 0 0 0 0 0 0 0 0 0 0 0 0 0 0 0 0 0 0 0 0 0 0 0 0 0 0 0 0 0 0 0 0 0 0 0 0 0 0 0 0 0 0 0 0 0 0 0 0 0 0 0 0 0 0 0 0 0
66 66 82 148 220 228 172 106 82 74 66 58 66 74 74 66 66 74 74 66 66 66 74 74 74 66 66 98 197 254 254 228 212 220 197 140 98 82 74 66 74 74 90 82 106 164 164 115 98 106 98 74 74 90 90 74 74 74 74 74 74 90 74 74 90 90 74 74 74 90 82 66 74 74 106 164 228 254 254 237 179 132 90 74 74 74 74 74 66 74 90 90 74 74 90 106 106 132 123 132
74 74 115 197 245 212 140 82 74 66 66 74 66 66 66 58 66 74 58 66 74 74 66 66 74 66 66 90 172 254 254 245 220 212 156 98 74 82 74 66 58 66 74 74 82 140 172 172 140 123 90 82 90 82 90 90 90 74 82 90 90 98 74 74 74 74 66 66 82 74 74 82 90 90 132 197 245 254 245 197 148 106 74 82 98 74 74 74 74 82 90 106 90 74 74 74 90 98 106 132
90 115 197 245 237 179 106 74 74 98 74 66 66 66 74 74 66 66 58 58 52 58 66 66 66 74 90 106 164 245 254 254 220 164 123 90 74 66 66 66 66 74 74 74 74 98 123 156 179 172 148 106 82 90 82 82 98 98 82 74 74 74 90 82 74 66 66 74 74 90 82 74 58 98 179 254 254 245 187 148 106 90 74 74 82 74 74 82 90 74 58 74 90 90 74 98 90 74 74 106
106 164 237 245 204 148 106 74 74 74 66 66 66 58 58 66 58 58 58 58 66 66 58 58 58 58 58 106 204 254 254 254 228 164 123 90 74 66 66 58 74 74 74 66 58 66 82 115 140 148 164 156 140 123 106 90 90 90 90 90 82 74 74 74 74 74 74 58 52 58 58 74 106 156 197 245 254 204 156 140 106 74 74 74 74 90 90 98 106 90 74 74 98 90 74 66 74 82 98 98
172 228 245 237 179 115 74 66 66 66 74 58 52 58 58 58 58 58 58 66 66 58 66 66 58 58 74 140 228 254 254 254 228 164 90 66 66 66 66 66 58 58 66 58 66 74 74 66 82 123 156 172 164 148 140 140 115 90 82 90 90 74 58 66 74 74 74 66 66 66 74 90 106 187 245 254 212 156 140 123 106 98 98 98 98 90 90 90 74 82 98 90 74 82 90 82 74 90 90 74
197 245 245 228 179 106 74 74 74 66 66 66 58 58 66 66 74 66 58 58 66 66 66 58 58 52 66 106 197 254 254 254 228 164 90 66 66 66 66 52 58 58 66 66 58 58 66 66 74 74 82 106 140 164 172 164 140 123 106 98 82 74 74 74 82 74 74 74 82 74 66 98 164 237 254 237 172 140 132 123 106 90 74 90 98 90 90 98 90 82 82 82 74 74 74 74 74 74 74 90
212 220 237 237 172 106 74 74 66 58 52 58 52 58 58 58 52 58 66 66 58 66 66 74 66 58 74 148 237 254 254 254 212 140 82 58 66 74 66 58 58 58 52 66 74 74 74 74 74 82 82 90 98 115 156 172 164 132 123 132 123 98 74 74 74 74 82 90 74 74 82 140 220 254 237 187 148 123 106 106 98 90 90 90 74 82 90 98 98 82 74 74 74 74 74 66 66 74 90 74
204 237 245 245 187 123 82 74 74 66 52 58 66 58 52 58 52 58 66 74 66 58 52 52 66 66 58 106 212 254 254 254 237 156 98 66 66 66 58 52 52 52 66 58 52 52 58 66 74 74 66 74 74 82 106 115 132 132 132 123 123 106 90 74 66 74 98 90 74 74 98 179 245 254 197 132 106 115 106 98 74 74 90 90 82 106 106 98 74 74 74 74 74 74 74 66 58 66 74 82
197 237 245 245 212 148 82 74 66 66 66 52 52 58 66 74 66 52 52 58 66 58 58 58 52 66 74 123 212 254 254 254 204 140 82 66 66 66 66 52 52 58 66 58 58 74 74 74 74 66 66 66 74 74 90 98 98 74 74 98 115 123 106 90 90 82 90 90 98 115 172 245 254 237 172 123 115 106 90 74 90 106 90 90 98 90 82 74 66 74 82 66 66 74 74 74 74 90 74 74
197 197 212 245 245 204 123 74 66 66 74 66 52 58 58 52 58 58 58 58 58 58 66 66 66 58 58 90 179 254 254 254 197 123 74 66 74 66 58 58 52 66 74 74 66 74 74 74 66 74 74 74 82 82 74 82 74 74 90 98 106 98 90 90 98 115 106 106 132 172 212 254 254 228 164 123 106 90 74 74 82 90 74 74 74 74 74 90 74 66 74 90 74 74 74 74 74 74 74 82
172 179 212 245 245 237 148 82 74 90 90 66 58 52 58 66 58 58 58 58 58 58 58 58 66 58 74 90 172 245 254 254 179 90 74 90 74 66 58 58 58 58 58 66 74 74 74 74 74 74 90 82 74 82 90 74 82 90 90 90 90 82 90 106 115 123 140 156 197 237 254 254 254 212 123 90 98 90 74 74 82 74 74 66 58 66 58 66 90 90 66 74 82 82 74 74 82 74 74 74
179 179 187 212 254 254 204 123 82 82 74 66 58 58 58 66 58 58 58 58 58 58 52 52 66 74 74 74 140 228 254 254 179 90 74 74 74 74 74 74 66 58 58 66 90 82 74 74 74 74 90 90 74 74 74 74 82 90 90 82 82 90 82 74 106 140 164 187 220 254 254 254 245 212 148 106 90 82 82 74 74 74 74 66 58 58 66 74 74 74 58 74 90 82 74 74 82 74 74 74
164 172 172 212 245 254 237 172 123 74 66 66 66 66 66 58 58 66 66 58 66 66 74 82 74 66 66 106 197 254 254 197 123 90 74 74 66 58 52 58 58 74 74 66 66 74 82 74 74 74 74 74 74 66 74 98 90 74 74 90 90 90 98 98 90 123 187 245 254 254 254 254 254 212 148 82 66 66 74 74 74 66 58 74 74 66 66 74 74 74 74 74 74 74 74 74 74 66 74 90
204 197 179 179 212 245 245 220 156 90 74 74 66 66 66 66 66 58 66 58 58 66 66 66 52 58 74 90 156 237 254 204 140 98 82 82 82 74 66 74 74 74 74 74 74 74 90 74 74 74 74 82 74 82 74 74 90 82 74 66 74 90 74 74 74 115 187 254 254 245 254 254 245 212 164 115 90 82 74 66 66 66 58 66 74 66 66 66 74 66 74 66 58 74 74 74 66 66 66 74
179 172 179 179 187 212 237 220 187 115 74 74 82 74 66 74 74 66 66 66 66 66 66 74 74 90 90 90 140 228 245 197 123 90 98 90 74 74 90 90 82 74 74 74 74 74 74 58 66 74 90 82 74 74 74 74 74 82 82 74 74 90 74 82 90 132 197 254 254 254 254 254 254 245 172 106 82 66 74 74 66 74 74 66 66 66 66 66 74 66 74 66 66 74 66 58 66 74 82 90
179 179 187 179 187 204 228 237 220 172 106 74 90 90 74 66 66 66 66 52 52 66 74 66 74 74 74 90 148 245 245 187 98 74 106 106 82 74 74 82 74 90 98 90 74 58 74 74 82 74 66 74 90 90 90 74 74 74 82 98 90 82 74 74 74 115 197 254 254 254 254 254 254 254 220 148 98 66 66 74 74 66 66 66 66 66 66 66 66 74 74 74 66 58 58 58 58 66 74 98
164 187 187 187 179 172 197 245 245 197 148 98 90 74 74 74 74 74 58 58 66 74 74 74 66 74 90 132 179 228 228 172 123 98 90 82 82 74 74 74 66 74 74 74 74 74 74 66 66 74 74 74 66 74 66 74 74 74 74 74 66 74 74 74 90 148 237 254 254 254 254 254 254 254 228 164 106 82 74 66 66 58 58 66 66 58 66 74 74 74 74 58 66 82 74 74 74 66 74 106
179 172 179 197 197 197 204 220 245 228 220 164 123 98 90 98 106 106 98 98 106 90 90 82 74 98 115 164 197 245 254 212 164 123 98 90 90 74 74 74 74 66 58 66 74 74 58 66 74 66 58 66 74 74 58 52 58 74 82 74 74 74 74 74 98 164 245 254 254 228 197 187 187 212 237 220 156 106 98 82 74 74 66 66 74 66 66 66 66 58 66 66 66 66 58 58 74 90 90 106
156 172 187 187 179 197 220 228 237 245 228 220 197 164 148 140 164 179 187 179 164 172 164 156 148 164 179 197 220 228 220 204 164 106 98 74 66 74 90 82 74 58 66 74 74 66 66 74 74 66 66 74 74 82 74 66 74 74 82 82 82 82 74 106 140 179 220 228 204 156 106 90 98 132 172 204 212 156 106 98 82 74 74 66 66 74 74 74 66 58 66 74 74 58 74 82 74 74 98 156
179 172 197 204 187 187 212 245 254 245 245 245 245 204 172 156 164 172 172 179 187 197 187 164 164 179 164 164 156 156 164 187 172 140 106 74 58 74 90 74 74 90 74 74 74 74 74 90 82 74 66 74 74 66 66 58 74 58 66 74 90 90 82 106 164 197 212 179 132 106 106 98 74 74 106 156 197 204 187 156 115 98 98 90 66 66 66 66 58 66 74 74 82 66 74 66 74 98 132 164
179 187 179 179 187 204 228 245 254 254 254 245 187 140 106 90 98 98 90 98 132 132 106 106 115 106 106 98 98 98 123 148 172 172 148 106 90 66 66 66 74 74 74 74 58 66 66 58 66 66 66 66 74 74 74 66 66 74 90 74 74 74 106 156 187 179 140 106 98 90 90 98 98 74 74 90 115 156 197 197 187 140 106 98 90 74 66 74 74 90 74 74 74 106 106 106 115 140 148 179
164 179 187 179 172 179 220 245 254 254 254 254 179 98 66 74 90 74 58 66 90 82 66 74 74 90 90 90 90 98 90 106 140 187 187 172 123 74 74 98 90 66 66 74 66 66 66 74 74 74 58 66 74 82 66 58 58 66 66 74 74 106 140 164 172 148 98 90 90 82 74 66 66 66 74 74 82 90 123 164 197 187 156 123 115 98 98 82 74 74 98 115 132 140 123 106 98 90 98 115
172 179 187 179 156 187 228 245 254 254 245 197 156 90 74 90 74 74 66 74 74 74 74 66 74 74 90 90 74 74 98 106 140 179 228 220 179 148 132 98 82 90 90 74 58 52 66 74 66 66 74 74 74 74 74 74 82 90 90 98 140 164 179 156 123 90 82 90 74 74 74 74 74 74 74 82 74 66 66 82 140 197 237 204 156 123 123 106 106 115 132 140 106 90 98 98 74 66 74 82
172 164 179 172 172 197 237 254 254 254 245 204 164 90 58 66 74 74 66 66 66 66 66 58 74 74 74 74 74 74 90 98 106 164 237 254 228 197 172 172 164 156 132 115 115 106 98 106 82 66 74 90 82 74 58 66 74 74 74 115 164 179 140 90 74 74 98 90 74 66 74 74 74 74 52 66 66 74 66 74 74 132 204 245 228 187 156 148 156 156 148 115 98 82 74 74 74 74 66 58
172 172 164 179 187 220 245 254 254 245 237 204 140 90 66 58 58 52 52 66 66 66 58 58 58 66 66 66 66 74 82 90 106 179 237 245 237 220 220 228 197 156 132 132 132 140 132 132 140 132 132 123 123 106 106 98 82 90 132 164 172 148 132 123 106 98 74 74 74 74 74 74 74 66 66 66 74 74 74 58 74 106 172 228 245 220 197 172 164 140 98 66 74 90 74 66 66 74 90 74
179 187 179 172 179 220 245 254 245 245 245 212 132 74 66 66 66 52 52 66 66 52 58 58 66 66 66 66 74 90 90 74 82 148 245 254 254 220 197 187 148 106 106 106 98 106 106 123 132 140 148 148 148 140 132 164 179 172 179 179 164 156 140 123 98 82 74 74 90 74 74 74 74 74 66 58 52 66 74 66 66 90 148 228 254 237 197 179 148 106 74 74 74 74 66 58 66 58 58 58
179 172 179 187 197 228 254 254 254 254 228 179 132 82 74 74 74 66 58 58 52 66 66 66 58 52 58 66 66 58 74 82 106 172 245 254 254 237 187 132 106 82 74 82 74 74 74 74 74 90 106 106 98 115 132 148 187 237 245 220 187 140 106 98 90 74 58 52 66 74 66 52 66 74 66 66 74 66 58 58 66 82 156 245 254 237 187 148 140 115 90 74 74 74 74 66 58 58 66 74
179 164 172 179 197 220 254 254 254 254 245 172 106 74 74 82 58 58 74 90 74 66 66 66 66 66 66 74 74 74 74 74 74 140 245 254 254 245 179 132 90 74 74 74 90 82 74 74 74 74 74 98 98 74 82 98 140 172 197 212 197 156 106 90 82 74 74 74 74 98 74 58 66 74 82 74 66 74 66 66 66 74 140 220 254 254 220 164 132 106 90 74 74 74 82 74 66 58 58 58
187 187 179 179 204 245 254 254 254 254 245 187 106 82 74 74 66 58 58 66 58 58 58 66 58 58 74 74 66 58 58 74 123 187 254 254 254 228 148 98 74 66 74 66 66 66 58 58 66 74 66 66 66 90 98 82 74 98 148 164 148 140 123 90 90 90 74 66 66 58 66 74 74 74 74 66 58 66 74 74 58 66 132 237 254 254 220 164 123 98 90 82 74 74 74 74 74 74 74 66
197 187 179 187 228 254 254 254 254 254 228 164 106 74 74 66 66 66 52 58 66 58 58 66 66 74 74 66 66 74 74 90 106 179 245 254 254 245 164 90 74 66 66 66 58 58 58 66 66 58 58 74 98 74 58 74 74 98 123 164 172 148 115 90 74 74 74 58 66 58 58 74 74 74 90 74 58 66 66 74 58 66 123 228 254 254 254 197 132 90 90 82 74 66 58 58 66 74 74 90
187 179 172 172 197 245 254 254 254 254 228 132 74 74 74 74 66 58 66 58 66 66 74 74 74 74 66 66 74 74 74 66 90 148 220 254 254 245 156 74 66 74 74 66 66 66 66 58 58 66 74 74 74 66 66 74 82 98 90 106 123 132 123 90 74 74 90 90 74 74 74 66 74 66 58 66 74 74 66 66 66 74 115 212 254 254 254 197 132 90 66 58 58 58 52 66 66 66 74 82
172 156 164 179 197 212 245 254 254 245 197 123 74 66 66 74 74 66 58 58 58 66 66 74 82 90 74 74 74 74 74 82 74 106 172 254 254 245 172 98 74 74 74 66 66 66 66 66 58 58 74 74 74 74 74 74 66 74 82 106 106 123 106 106 90 74 82 74 74 90 90 66 58 74 82 74 58 58 66 74 66 66 90 172 245 254 254 212 140 98 74 74 74 58 58 58 66 66 66 66
156 148 164 187 179 187 220 254 254 237 179 123 98 98 82 74 74 74 74 74 74 74 74 74 66 66 74 82 66 74 74 82 90 90 132 228 254 254 172 98 74 74 74 74 66 58 58 52 58 58 58 66 66 66 66 66 66 66 74 90 106 106 123 123 98 90 74 74 74 74 74 82 82 74 74 82 66 66 66 74 74 74 82 172 254 254 254 220 164 106 82 74 66 66 58 58 58 66 58 66
156 172 172 179 179 179 197 245 254 254 212 140 90 74 90 74 74 66 74 90 98 90 74 74 74 74 90 74 74 74 74 82 74 90 132 220 254 254 187 115 74 74 66 58 58 66 58 58 58 66 66 66 66 58 66 66 58 58 66 74 82 106 123 132 106 98 82 74 74 74 74 74 66 66 66 66 58 74 90 74 66 74 106 187 254 254 254 237 172 106 74 66 66 66 58 52 66 74 66 66
148 164 179 172 172 179 197 228 245 254 237 179 132 82 74 90 74 74 74 90 74 98 90 74 74 90 90 90 82 82 82 82 90 82 148 237 254 254 187 123 98 74 74 66 74 66 58 58 58 58 66 66 74 74 74 66 58 66 66 74 82 98 132 179 172 123 82 74 82 90 74 66 66 74 90 82 66 58 66 66 58 66 123 179 245 254 254 237 179 123 90 74 66 58 58 66 66 66 66 66
172 179 172 164 172 179 187 212 245 245 228 197 164 132 115 106 90 82 90 90 82 90 90 90 98 98 90 90 82 74 74 98 106 106 132 197 254 254 254 156 82 74 58 66 66 58 52 58 58 58 58 52 58 58 66 66 66 66 58 58 66 90 148 187 179 140 106 82 74 74 74 66 74 74 66 74 66 66 74 74 82 66 74 148 254 254 254 245 187 123 74 66 58 58 58 58 58 58 58 66
164 164 156 164 164 179 204 220 212 197 187 179 172 187 164 115 106 98 90 90 98 98 90 98 98 90 82 90 90 98 98 82 74 98 115 179 254 254 245 172 98 74 74 74 66 58 52 58 58 58 58 58 58 58 66 66 58 58 66 58 58 74 123 212 245 197 123 98 98 98 74 82 74 66 66 66 66 66 66 66 82 74 98 164 237 254 254 254 197 106 90 66 74 66 58 58 66 66 58 58
164 179 172 156 164 164 204 220 212 172 123 115 132 156 172 156 140 123 106 106 98 90 74 82 90 90 90 98 74 90 90 90 74 74 98 164 254 254 254 197 106 66 58 58 58 58 58 58 58 58 58 58 58 52 58 58 58 58 58 58 52 52 74 148 237 245 187 115 82 82 74 82 74 58 74 74 74 74 74 66 74 82 106 148 212 254 254 254 220 132 74 58 58 66 58 52 66 66 66 58
172 164 156 140 156 187 220 204 179 140 98 82 98 106 132 132 132 132 140 115 98 90 98 98 98 98 82 90 106 106 90 74 90 106 98 106 197 254 254 204 123 74 74 66 52 52 58 58 58 58 74 66 58 66 66 58 58 58 58 66 66 58 74 123 220 245 212 148 98 82 66 74 74 74 74 74 74 66 66 74 74 74 74 115 187 254 254 254 212 123 74 66 66 58 58 52 52 66 74 66
172 179 164 156 164 197 204 187 156 123 106 98 90 82 82 98 123 148 164 132 106 98 98 98 106 106 90 82 74 82 74 90 90 74 98 123 187 245 254 254 164 98 66 74 74 66 58 66 66 58 58 58 58 66 74 66 58 58 52 58 58 52 58 74 132 212 245 220 140 82 66 58 74 66 66 66 66 74 58 66 66 66 90 115 172 245 254 254 228 140 90 74 66 66 66 66 66 66 58 58
179 179 172 179 187 187 187 164 115 98 106 106 98 90 90 98 106 106 123 156 156 123 98 90 98 98 74 74 74 106 90 66 82 106 106 123 179 254 254 254 156 90 90 74 66 58 52 58 66 66 58 58 58 52 58 66 66 66 66 58 66 66 66 74 106 212 254 254 172 98 74 90 82 74 66 74 66 74 74 66 66 74 82 98 148 237 254 254 220 148 106 74 66 66 66 74 66 66 58 66
179 187 179 179 187 197 187 156 123 106 98 98 90 90 74 74 66 74 98 123 140 140 140 123 90 82 98 98 82 74 74 82 98 106 98 115 172 245 254 254 204 140 98 90 74 74 66 66 58 58 58 66 58 52 58 66 58 52 74 74 74 58 58 66 82 140 228 254 245 156 82 82 82 74 74 66 66 66 66 74 74 66 66 98 156 237 254 254 254 187 123 74 74 74 74 66 66 66 74 66
179 164 172 172 197 212 197 148 106 90 74 90 74 66 58 66 74 98 98 74 74 123 164 156 132 106 98 98 98 90 90 90 82 74 90 132 179 245 254 245 228 179 98 74 74 82 74 58 58 58 58 66 58 66 52 52 66 66 52 58 66 74 74 66 66 98 197 254 254 197 106 90 90 82 66 74 82 82 74 74 74 82 82 98 156 237 254 254 254 220 156 90 66 58 66 66 52 66 74 74
187 179 187 197 212 220 212 164 106 82 74 74 74 58 58 74 82 74 66 74 74 98 106 123 140 140 132 115 106 98 90 90 90 98 140 164 187 228 254 254 228 197 140 90 66 66 66 66 52 58 74 74 58 52 58 58 58 58 58 58 58 58 58 66 74 98 172 245 254 220 156 106 74 74 66 74 74 74 66 58 66 74 98 115 140 197 254 254 254 228 164 98 66 52 58 66 66 66 82 115
197 179 172 187 204 204 197 148 98 74 74 74 74 66 58 52 58 58 66 74 74 66 74 90 106 140 156 140 123 123 106 106 106 140 156 179 212 204 212 220 245 220 172 98 74 74 74 74 74 74 74 66 58 66 66 74 52 58 58 66 74 74 74 66 74 98 148 220 254 254 179 106 74 82 82 74 74 82 74 66 74 98 98 115 164 212 254 254 254 254 179 106 90 106 90 66 66 90 156 212
172 187 187 197 228 228 197 156 98 74 74 74 74 66 66 66 58 74 66 74 82 74 66 82 98 106 132 172 197 187 148 140 187 197 179 179 187 197 197 204 212 220 220 187 148 90 74 74 74 74 66 52 66 58 66 66 58 66 74 90 74 82 98 82 74 98 172 245 254 245 187 140 90 74 90 82 74 74 74 82 106 123 123 115 132 164 212 245 254 245 220 164 106 74 58 66 106 164 212 245
179 179 172 179 212 245 220 148 90 58 66 58 58 58 66 66 66 58 66 66 66 66 58 58 58 66 106 187 237 228 212 212 197 197 204 197 179 179 179 179 179 197 228 237 220 148 98 82 90 74 66 58 58 74 90 90 98 106 106 148 164 156 132 148 156 164 179 220 245 254 220 156 123 106 106 106 98 82 82 90 98 106 123 123 132 132 148 156 172 212 245 220 172 106 98 140 187 237 254 254
156 156 179 187 228 245 237 148 74 66 74 74 66 58 58 66 58 58 58 58 58 74 74 66 58 66 98 187 245 245 220 204 197 197 204 197 187 187 179 172 187 212 212 212 220 220 179 156 140 123 140 132 115 123 140 164 172 164 164 179 179 156 132 148 156 148 140 148 187 204 204 179 179 172 132 115 106 106 98 90 90 98 106 106 98 106 106 123 140 164 187 212 212 197 212 245 245 254 254 254
179 172 172 197 237 245 179 106 66 66 74 74 66 58 52 58 58 58 58 58 66 58 66 66 66 74 106 179 245 254 197 179 197 197 172 172 197 197 172 179 187 179 172 172 187 228 245 245 220 212 212 204 197 179 187 197 179 156 148 132 106 90 90 98 98 98 98 106 115 123 156 212 220 212 204 172 132 115 106 98 74 90 98 90 82 74 74 74 74 106 156 197 237 245 245 254 254 254 254 254
172 148 164 212 245 220 148 106 74 66 58 58 58 52 52 58 58 66 58 58 66 66 74 74 66 74 106 197 245 237 197 179 187 187 164 172 172 164 172 187 172 164 164 187 197 212 237 245 245 245 220 212 212 179 156 148 106 98 90 98 98 106 98 98 98 98 98 115 106 90 140 212 245 245 220 156 115 106 98 74 82 90 90 74 82 90 90 82 74 74 98 156 237 254 254 254 254 254 254 254
164 164 187 197 197 179 132 82 74 74 74 74 74 66 66 74 66 66 66 74 74 66 58 52 58 58 74 187 254 245 197 148 164 179 197 187 172 172 179 172 179 172 172 172 179 187 197 212 212 187 164 123 98 98 82 74 74 82 90 90 90 74 74 98 98 82 90 90 98 106 123 179 245 254 220 148 115 106 106 90 74 74 74 74 66 58 66 74 82 66 74 140 228 245 254 254 254 254 254 254
187 179 187 197 164 132 98 74 74 74 58 58 58 66 58 58 52 52 52 52 52 58 52 52 58 74 123 197 245 237 187 164 164 179 179 164 148 172 172 164 164 187 187 179 179 187 197 212 197 156 106 82 74 82 74 74 74 90 90 74 74 74 82 106 98 82 74 82 82 106 132 197 245 254 237 164 123 90 82 74 66 74 66 58 52 58 66 74 74 66 66 106 187 245 254 245 254 254 254 254
179 187 172 172 164 132 82 74 66 66 66 58 52 58 58 58 58 52 58 58 58 58 58 66 66 74 123 204 254 245 172 140 156 164 164 164 164 148 164 172 172 148 156 156 172 197 204 197 156 98 74 74 98 74 66 66 74 74 74 90 90 74 74 90 98 98 82 90 90 106 123 179 245 254 254 212 106 74 90 82 74 58 58 58 58 58 58 58 58 58 74 90 164 245 254 254 254 254 254 254
179 204 197 179 140 106 74 74 74 66 58 52 52 52 52 58 58 58 52 52 58 66 58 58 52 66 123 187 237 228 179 148 148 172 179 172 164 156 140 164 164 164 148 148 164 204 212 172 123 90 74 82 82 66 58 66 74 74 82 98 98 74 74 74 82 98 82 82 74 90 132 212 254 254 254 197 132 90 74 74 66 58 52 58 58 52 58 58 66 58 58 90 179 245 254 254 254 254 254 245
197 197 228 228 164 98 66 66 66 58 52 58 52 58 58 58 58 58 74 66 58 58 66 66 66 66 106 197 245 220 179 148 164 172 179 156 148 164 172 164 164 164 156 156 179 187 172 148 115 98 98 74 58 74 74 90 74 74 90 90 82 90 74 74 74 74 98 82 66 74 123 197 254 254 254 228 164 106 74 74 66 58 66 58 58 58 52 52 52 58 66 74 140 220 254 254 254 254 254 245
197 220 237 237 179 115 74 58 74 58 52 58 58 58 52 58 52 58 66 58 58 58 52 52 74 74 90 164 228 228 179 156 164 164 156 148 164 197 187 164 164 187 179 156 164 179 179 156 98 74 90 98 82 74 66 74 74 90 74 74 90 90 90 74 74 74 90 74 74 82 123 187 245 254 254 228 156 115 90 66 66 58 58 58 58 52 58 58 58 58 58 74 115 197 254 254 254 254 254 237
172 212 237 228 187 132 106 90 74 66 66 74 66 58 52 52 58 58 52 58 66 66 74 66 58 58 74 140 197 204 187 164 164 172 156 172 187 172 164 172 172 172 172 179 172 172 172 140 106 74 74 90 98 98 74 74 66 74 82 90 90 82 74 90 98 106 98 82 82 90 106 164 245 254 254 254 172 115 90 66 66 66 66 66 66 58 58 58 58 58 66 74 140 220 254 254 254 254 254 220
164 187 197 212 212 172 123 74 58 66 74 66 52 58 58 52 58 58 58 58 58 58 58 58 58 58 66 98 140 187 187 172 172 172 164 164 164 172 172 156 148 172 187 179 164 172 172 156 123 98 74 74 74 74 82 90 74 74 74 74 66 66 66 74 82 74 74 66 74 82 115 164 220 254 254 254 187 115 98 74 66 66 52 58 52 52 58 66 58 58 58 74 132 228 254 254 254 254 245 197
179 164 197 220 204 204 187 148 98 74 66 74 74 58 66 66 58 58 66 58 58 66 74 66 66 74 74 98 156 197 204 164 156 164 187 172 156 164 172 164 164 172 172 172 179 172 164 148 115 98 90 98 82 74 74 66 74 74 74 74 74 58 58 66 66 66 74 74 66 66 74 148 237 254 254 254 204 123 74 74 74 74 58 52 58 58 58 52 58 58 52 66 123 197 254 254 254 254 245 187
187 179 187 172 179 212 237 197 132 74 58 66 66 58 58 66 66 66 58 52 66 74 74 66 66 66 74 106 156 204 220 197 179 164 172 179 172 179 172 164 156 164 179 187 179 172 172 156 106 90 98 90 74 74 74 74 66 66 74 66 74 66 58 58 58 58 52 58 52 58 74 140 237 254 254 254 204 140 74 58 58 58 66 66 58 66 74 66 66 66 58 74 132 220 254 254 254 254 245 187
197 197 197 179 164 172 197 220 172 123 90 74 66 58 58 52 58 58 58 58 66 66 74 74 74 74 74 98 156 228 220 187 187 204 187 172 179 197 179 164 148 164 172 172 172 187 187 164 132 98 66 74 74 74 74 90 90 74 66 66 66 74 66 66 74 74 66 74 74 74 106 179 245 254 254 254 204 132 82 74 74 58 52 58 58 58 66 66 66 58 66 74 90 179 254 254 254 254 220 187
179 197 187 187 187 179 172 197 197 164 115 74 58 66 58 52 52 52 58 66 66 58 74 90 98 74 66 115 187 237 228 212 204 197 172 172 172 179 172 164 164 172 179 164 164 197 228 197 172 123 90 66 58 66 66 74 58 52 66 66 66 66 58 58 58 58 58 58 66 66 90 172 254 254 254 254 197 123 74 74 74 74 52 66 74 66 66 66 74 74 66 74 98 172 245 254 254 254 212 164
187 187 187 172 164 164 179 187 197 197 164 123 98 74 66 66 66 74 66 58 58 58 58 66 74 74 98 179 228 228 197 197 187 172 164 164 156 156 156 140 140 148 132 140 156 197 245 245 220 148 98 74 66 74 66 58 66 66 58 58 66 58 66 66 58 58 58 58 58 66 106 187 254 254 254 245 179 123 98 74 58 66 74 74 66 66 58 66 74 74 66 74 90 148 245 254 245 237 212 172
164 164 172 172 164 164 156 164 197 220 197 164 123 90 82 82 66 58 66 66 74 58 58 52 66 90 148 220 254 245 197 164 140 132 132 132 106 106 106 115 123 106 82 90 115 164 204 245 237 187 140 98 82 74 58 58 66 66 66 58 58 58 52 58 58 58 58 58 52 66 90 172 245 254 254 254 197 123 90 74 66 58 58 58 58 66 58 66 74 90 74 58 74 132 220 254 254 245 197 140
164 172 172 179 164 148 156 179 179 172 187 187 179 148 90 66 66 74 66 66 66 74 98 98 90 123 197 254 245 228 164 115 106 90 74 74 90 82 74 74 74 66 66 74 74 98 132 187 237 212 148 106 106 82 74 74 74 66 66 74 74 66 58 58 58 52 52 58 52 58 90 172 254 254 254 245 172 123 82 66 74 66 74 74 66 58 58 58 58 74 74 66 74 132 212 254 254 212 164 156
187 197 172 172 179 179 179 164 164 164 172 179 197 197 140 90 66 66 66 74 66 74 66 66 106 197 254 254 237 187 132 90 74 90 74 66 66 66 66 74 74 74 66 58 66 74 90 140 172 197 179 156 115 74 74 74 66 58 66 58 58 58 66 58 58 58 52 66 74 58 74 164 245 254 254 254 204 123 66 66 82 74 58 58 66 66 66 66 66 58 74 74 90 106 156 220 254 237 179 140
179 187 179 179 179 179 164 164 172 172 172 179 197 172 148 123 106 106 106 74 66 74 98 156 220 254 254 254 220 140 98 90 74 74 74 74 74 66 58 58 66 74 66 58 58 66 66 90 140 187 197 187 156 123 82 74 74 66 58 66 74 74 66 66 66 58 58 52 58 58 82 156 245 254 254 254 197 98 74 82 90 74 66 74 66 58 58 58 58 66 74 90 90 90 132 212 245 228 172 140
172 172 179 172 179 197 187 179 172 179 179 179 187 172 172 179 187 179 172 164 156 156 164 197 245 254 254 254 179 106 74 82 82 74 66 66 74 74 74 58 58 58 58 66 58 52 52 66 82 115 156 204 228 197 106 74 74 90 74 58 74 74 74 66 58 58 66 66 58 58 66 123 237 254 254 245 204 148 98 74 82 74 74 66 58 52 58 66 74 74 66 74 90 82 106 187 245 237 179 148
179 187 172 172 172 164 164 164 156 172 172 172 179 197 212 220 245 237 220 228 237 228 220 237 254 254 245 187 115 74 58 66 58 58 58 52 58 52 52 58 52 52 52 52 58 58 52 52 74 74 106 172 228 212 164 123 74 66 66 66 66 66 66 58 66 58 58 58 58 58 74 132 228 254 254 245 197 164 106 74 74 90 90 74 66 58 58 58 66 74 74 66 74 90 123 179 228 245 197 156
164 164 164 187 187 164 156 172 164 164 172 179 187 220 245 254 245 228 197 187 197 220 220 245 254 254 245 172 106 74 66 58 66 66 58 52 66 66 66 52 52 52 66 58 58 66 66 66 66 74 74 98 172 228 212 156 115 90 74 58 52 58 58 58 58 52 58 66 74 66 74 140 220 254 254 254 228 164 106 90 90 82 66 74 74 66 74 74 82 82 66 58 66 74 106 172 220 237 212 164
179 156 148 156 179 179 156 156 172 172 172 172 197 237 245 254 212 187 179 172 172 187 197 228 245 245 197 123 90 74 74 66 52 58 58 52 58 52 58 58 58 52 52 58 58 58 66 58 58 58 74 90 106 156 187 197 156 106 66 74 74 66 58 58 58 58 58 52 58 58 74 148 237 254 254 254 220 156 106 82 74 74 74 66 66 58 52 58 74 74 66 58 66 74 132 187 212 220 197 172
164 148 156 140 156 172 164 148 148 156 164 197 228 245 254 245 228 187 156 156 164 164 164 187 228 237 197 123 82 66 66 58 58 58 66 66 66 66 58 58 58 58 58 74 74 66 66 74 74 82 74 82 74 115 164 204 197 156 90 74 66 66 58 66 58 58 58 58 66 66 74 148 237 254 254 228 212 179 140 98 90 74 74 58 74 74 66 66 66 66 66 66 74 90 123 212 254 254 204 164
172 140 132 148 156 148 148 148 148 140 172 204 245 245 245 220 187 164 148 172 179 148 140 179 228 237 179 106 74 90 90 66 66 74 66 66 66 58 66 74 66 66 66 58 58 58 58 58 58 66 74 74 90 74 106 172 204 179 123 74 74 66 66 66 66 66 66 66 74 74 115 187 245 254 228 197 197 187 156 123 106 98 90 74 74 66 74 74 82 74 74 74 82 123 197 237 245 228 187 156
164 156 156 148 148 132 140 148 148 164 197 220 237 245 212 172 156 148 148 156 156 156 156 179 197 228 212 148 90 74 74 74 66 58 58 66 66 66 66 66 66 58 58 58 66 74 74 66 66 66 74 74 74 74 82 115 156 187 179 106 66 66 74 74 66 66 74 74 66 82 140 212 254 245 212 164 156 164 156 148 132 115 106 123 106 82 74 90 82 74 74 82 98 148 220 254 254 204 132 90
156 140 148 148 156 172 172 172 179 197 220 228 220 179 172 179 164 156 164 164 148 140 148 164 187 228 237 187 115 74 66 74 66 58 66 66 58 74 74 58 66 66 66 66 74 74 66 66 66 74 74 74 74 74 74 90 132 164 156 140 98 74 66 66 66 66 66 66 82 140 197 220 220 197 172 172 172 164 148 140 123 140 156 156 132 140 115 90 74 74 82 98 123 179 245 254 220 140 98 74
172 148 156 164 164 172 172 187 212 228 212 197 187 164 164 179 164 164 148 156 156 164 156 148 172 220 245 237 179 98 74 74 82 74 66 66 66 74 58 66 66 66 58 58 66 58 66 74 74 74 74 74 74 90 74 74 106 164 172 164 132 106 82 90 90 74 58 58 74 164 254 254 254 212 164 164 156 148 156 164 156 140 148 187 197 179 156 132 132 132 106 98 156 237 254 254 187 132 98 66
197 179 164 156 156 172 187 220 228 204 187 179 172 172 156 156 164 172 156 156 164 164 164 164 179 212 237 245 197 140 82 74 74 74 58 52 58 66 66 66 52 58 66 66 66 74 74 74 74 90 90 90 98 82 74 74 90 132 197 212 187 164 148 123 98 90 90 98 148 220 245 254 212 172 172 172 164 156 156 148 156 148 148 164 187 179 172 156 140 132 156 187 228 254 254 220 164 106 82 74
197 197 197 187 172 156 164 187 212 212 197 172 140 148 156 156 156 156 148 140 148 156 164 172 179 212 237 254 237 187 140 90 74 58 58 58 74 66 66 66 66 74 74 90 82 90 90 74 74 74 74 74 74 74 90 98 106 140 179 204 187 197 187 179 164 140 106 140 212 254 254 245 197 187 187 172 148 156 156 140 140 140 140 164 172 179 164 164 164 172 179 204 245 254 254 228 172 115 74 66
220 212 220 212 187 172 179 164 156 164 164 164 148 148 140 156 156 148 156 156 156 148 148 156 172 212 245 245 245 220 212 187 140 106 98 90 74 66 58 58 66 74 66 66 74 74 74 82 74 74 90 82 82 90 90 90 98 140 172 179 156 140 156 172 172 156 187 228 254 254 254 228 212 187 164 164 164 156 140 148 148 156 164 148 140 164 187 172 164 164 187 212 237 237 237 237 179 98 74 74
197 204 220 212 197 187 164 140 140 164 164 156 148 140 148 156 156 156 156 140 123 140 148 164 197 220 245 237 237 220 212 204 197 187 179 164 106 74 74 74 74 74 66 66 74 82 74 66 74 82 82 74 66 82 90 106 123 156 164 164 148 148 140 164 164 164 187 237 245 245 245 220 187 164 148 164 172 156 148 148 123 132 156 172 156 164 172 164 172 172 172 197 212 237 245 254 204 115 74 58
197 212 212 212 212 179 148 148 156 156 156 156 148 140 140 148 164 179 164 132 115 106 140 172 197 220 245 254 228 197 197 187 187 187 187 197 197 164 115 74 66 66 66 58 74 90 74 74 74 82 74 90 106 106 106 148 172 172 164 156 156 156 148 148 164 179 172 204 245 245 237 220 187 156 156 164 164 172 164 148 148 156 156 156 156 148 148 164 148 132 148 172 204 237 254 245 197 115 74 74
179 187 179 197 228 212 179 172 179 164 156 156 156 164 156 148 156 156 148 140 132 132 156 172 179 228 245 254 220 179 179 172 172 172 172 197 212 197 179 148 106 74 74 74 74 90 66 66 74 74 74 82 90 115 140 164 156 156 179 179 156 148 140 148 148 164 164 197 237 245 245 237 179 156 164 179 164 148 132 148 156 148 148 156 156 148 148 164 164 148 148 164 187 237 254 245 212 156 98 58
179 179 187 172 179 204 204 179 172 172 164 164 179 172 156 156 164 172 164 164 140 148 148 164 212 245 245 228 204 179 164 164 164 164 172 164 164 187 212 197 187 164 132 90 66 74 90 98 66 74 90 106 140 179 187 156 148 179 179 172 156 148 140 140 148 148 172 212 254 254 254 220 172 148 156 156 156 140 156 164 156 148 164 164 156 164 172 172 164 156 148 164 187 212 237 245 212 156 98 74
197 179 172 179 197 197 204 187 172 172 172 172 156 156 172 179 164 148 164 179 164 156 172 179 204 237 245 228 197 172 164 179 164 140 148 156 164 164 179 187 187 179 164 156 132 90 66 82 106 115 123 148 164 179 179 179 179 179 164 148 156 148 148 148 123 132 164 220 245 254 254 237 197 179 156 156 172 172 164 164 172 172 172 164 148 148 148 148 164 164 164 156 164 179 228 245 220 164 115 74
172 172 179 187 187 179 179 187 179 156 156 172 172 164 156 164 179 179 156 156 172 172 164 179 212 245 254 237 187 179 172 156 148 156 148 148 156 156 148 156 172 179 187 172 156 156 140 140 164 187 187 179 179 179 179 187 179 164 164 164 156 156 140 132 140 156 140 179 254 254 254 237 197 187 187 156 132 156 179 179 164 172 164 172 172 172 172 179 172 164 172 172 164 179 197 228 245 204 132 82
0 0 0 0 0 0 0 0 0 0 0 0 0 0 0 0 0 0 0 0 0 0 0 0 0 0 0 0 0 0 0 0 0 0 0 0 0 0 0 0 0 0 0 0 0 0 0 0 0 0 0 0 0 0 0 0 0 0 0 0 0 0 0 0 0 0 0 0 0 0 0 0 0 0 0 0 0 0 0 0 0 0 0 0 0 0 0 0 0 0 0 0 0 0 0 0 0 0 0 0
