P2
100 87
255
255 255 255 255 255 255 255 255 255 255 255 255 255 255 255 255 255 255 255 255 255 255 255 255 255 255 255 255 255 255 255 255 255 255 255 255 255 255 255 255 255 255 255 255 255 255 255 255 255 255 255 255 255 255 255 255 255 255 255 255 255 255 255 255 255 255 255 255 255 255 255 255 255 255 255 255 255 255 255 255 255 255 255 255 255 255 255 255 255 255 255 255 255 255 255 255 255 255 255 255
255 255 255 255 255 255 255 255 255 255 255 255 255 255 255 255 255 255 255 255 255 255 255 255 255 255 189 189 173 107 35 27 83 149 173 181 189 197 189 181 181 189 189 181 181 189 189 189 181 181 181 189 189 157 58 1 1 27 43 35 58 115 157 173 181 189 181 181 165 173 149 91 91 140 157 149 157 181 181 165 165 181 181 181 181 181 181 165 181 181 165 165 181 181 181 165 173 189 181 181
165 181 181 165 165 181 181 181 165 173 189 181 181 149 91 27 1 1 18 76 123 165 181 181 181 181 149 91 27 1 1 18 76 123 165 181 181 181 181 181 189 181 165 165 181 181 165 149 149 123 132 123 181 181 140 58 10 43 115 173 181 189 189 181 189 189 189 197 189 181 197 189 181 181 189 189 181 189 189 165 83 1 1 10 35 43 99 157 181 173 181 189 197 189 181 181 173 115 83 83
157 181 173 181 189 197 189 181 181 173 115 83 83 115 132 165 173 165 173 165 165 165 181 173 165 165 157 181 181 181 181 189 189 173 181 181 173 165 165 157 181 181 181 181 189 189 173 181 181 173 165 165 123 58 10 1 10 58 107 149 181 173 157 181 181 181 181 173 165 149 165 181 181 181 165 157 149 123 165 140 58 10 18 76 149 181 181 157 181 189 189 189 181 181 189 189 197 197 203 197
157 181 189 189 189 181 181 189 189 197 197 203 197 189 189 189 181 165 149 91 10 1 1 35 91 132 165 181 189 189 189 189 181 181 181 181 157 132 99 76 83 107 149 173 165 173 173 157 157 173 181 181 76 83 107 149 173 165 173 173 157 157 173 181 181 181 165 173 181 189 189 181 181 165 173 181 197 157 76 1 1 10 68 107 149 165 181 181 173 181 181 173 165 181 197 181 165 165 181 157
181 173 181 181 173 165 181 197 181 165 165 181 157 165 181 181 149 149 91 18 10 51 107 149 181 181 181 189 189 189 197 197 189 197 197 197 197 189 189 197 197 197 197 197 149 51 1 1 1 27 91 132 165 181 189 189 197 181 181 181 189 197 189 173 140 165 181 189 189 197 181 181 181 189 197 189 173 140 115 107 91 99 115 132 149 165 165 165 165 165 173 181 181 181 181 181 181 197 203 197
165 165 165 173 181 181 181 181 181 181 197 203 197 197 181 149 99 58 10 1 51 99 115 149 181 181 181 181 165 165 157 149 165 181 181 157 165 181 189 181 173 157 157 83 27 10 18 76 140 181 189 189 189 181 197 203 197 197 197 197 197 197 189 189 197 189 189 197 197 181 115 27 1 1 1 27 91 165 189 189 197 197 181 115 27 1 1 1 27 91 165 189 189 189 189 189 197 197 189 197
1 27 91 165 189 189 189 189 189 197 197 189 197 189 181 181 189 173 132 99 83 91 107 115 115 140 165 173 165 165 181 197 189 181 181 181 189 189 189 181 165 149 68 10 1 43 99 115 132 149 157 157 157 157 165 165 165 181 173 157 165 181 173 165 173 181 165 165 181 58 10 10 27 76 149 181 181 181 189 189 189 197 197 189 189 181 189 197 197 189 189 189 189 189 197 197 189 189 181 189
197 197 189 189 189 189 189 197 197 189 189 181 189 197 197 189 189 189 197 197 203 189 149 58 1 1 1 27 91 165 189 189 189 189 203 197 197 189 189 197 197 189 189 181 181 173 149 115 91 83 91 115 132 149 157 173 181 181 181 173 181 181 181 173 181 189 157 91 18 1 18 83 115 123 132 149 165 181 165 157 165 165 157 165 173 173 173 181 181 181 181 181 181 181 165 43 35 18 18 83
181 181 181 181 181 181 181 165 43 35 18 18 83 149 181 181 189 181 181 181 165 43 35 18 18 83 149 181 181 189 197 203 197 203 197 197 197 203 197 189 189 197 189 189 181 189 197 181 107 18 1 1 1 43 115 173 197 189 181 189 197 197 197 203 189 181 181 181 181 181 173 173 165 157 140 99 83 91 123 132 123 132 157 181 181 181 181 173 165 181 181 173 115 35 1 18 68 107 132 149
173 165 181 181 173 115 35 1 18 68 107 132 149 149 157 165 165 165 181 173 165 157 157 173 181 181 181 181 181 189 165 181 173 165 157 157 173 181 181 181 181 181 189 189 181 165 181 51 18 10 10 68 132 173 181 181 189 203 197 189 197 203 197 203 197 189 181 189 197 203 203 189 189 197 149 43 1 1 1 18 99 157 189 189 189 197 203 203 203 189 197 203 203 197 189 181 181 189 181 181
203 203 189 197 203 203 197 189 181 181 189 181 181 173 149 140 123 123 123 132 132 149 165 181 189 181 157 165 181 181 157 76 10 1 58 123 149 140 149 157 181 181 165 157 76 10 1 58 123 149 140 149 157 181 181 165 165 173 149 149 157 181 181 181 181 181 181 181 189 197 189 181 173 58 18 10 10 43 107 173 181 189 189 189 203 203 197 189 181 189 203 203 197 189 197 197 197 203 189 181
189 181 189 203 203 197 189 197 197 197 203 189 181 132 43 1 1 1 51 115 173 189 189 189 189 203 203 197 189 197 197 181 181 181 181 189 189 189 181 181 165 157 157 181 181 157 140 132 149 165 165 173 165 165 157 140 181 181 157 140 132 149 165 165 173 165 165 157 140 83 10 1 18 83 132 140 149 165 181 165 149 165 165 157 165 173 181 189 181 173 189 189 181 181 181 181 165 181 181 58
189 181 173 189 189 181 181 181 181 165 181 181 58 58 43 10 10 51 132 181 189 189 181 189 203 197 197 203 197 197 197 197 197 197 189 189 189 197 197 165 76 1 1 1 58 132 181 189 181 189 197 197 203 189 181 181 189 181 181 181 189 181 181 181 173 173 181 173 181 189 181 181 181 189 181 181 181 173 173 181 173 181 181 165 157 149 157 165 165 157 140 149 149 123 83 43 1 1 27 91
165 165 157 140 149 149 123 83 43 1 1 27 91 132 149 165 181 181 173 165 181 181 181 181 181 165 181 189 181 165 181 181 181 181 181 181 181 173 83 76 43 10 10 18 107 173 181 165 165 189 197 203 197 189 197 197 197 197 197 197 197 197 189 197 181 165 83 10 1 1 76 165 181 165 181 189 197 197 197 197 197 189 1 76 165 181 165 181 189 197 197 197 197 197 189 181 181 181 181 181
181 189 197 197 197 197 197 189 181 181 181 181 181 181 165 173 181 173 165 181 173 165 165 165 165 173 165 149 140 132 115 99 58 18 1 1 1 43 132 165 157 165 181 181 173 181 181 189 197 189 197 189 165 165 189 181 173 173 181 181 173 181 181 181 76 76 68 43 1 1 51 132 173 173 181 189 197 197 197 189 197 197 197 197 197 197 203 203 189 181 181 181 115 27 1 197 197 197 197 203
203 189 181 181 181 115 27 1 197 197 197 197 203 203 189 181 181 181 115 27 1 1 76 165 181 181 181 181 181 181 189 197 197 189 165 173 181 181 181 181 165 165 181 181 181 181 173 165 165 173 173 165 173 181 149 115 91 68 35 1 1 1 10 43 107 149 165 173 173 181 181 181 181 189 197 197 189 181 181 181 197 181 165 173 181 181 173 181 181 181 91 83 83 43 10 1 18 83 132 181
181 181 181 91 83 83 43 10 1 18 83 132 181 189 189 189 189 189 197 197 189 1 18 83 132 181 189 189 189 189 189 197 197 189 189 197 189 189 181 173 181 189 189 149 58 1 1 58 132 165 181 181 189 197 203 197 197 181 181 189 189 181 173 181 181 181 181 181 181 189 181 157 165 181 181 165 165 165 157 157 165 132 68 10 1 1 1 1 1 43 107 173 189 189 181 181 181 189 197 181
1 1 43 107 173 189 189 181 181 181 189 197 181 181 189 189 181 181 181 181 181 181 181 181 181 181 189 181 165 51 58 76 76 43 181 181 181 181 181 189 181 165 51 58 76 76 43 10 10 35 99 165 181 181 189 189 189 189 189 197 189 197 197 189 189 189 203 197 181 165 99 18 1 51 115 157 173 173 173 181 189 181 181 181 181 181 181 181 165 181 181 181 181 173 181 173 181 181 165 173
181 165 181 181 181 181 173 181 173 181 181 165 173 181 189 181 165 181 181 181 140 68 1 1 10 1 1 10 43 91 140 165 173 181 189 189 189 197 189 181 189 189 189 181 189 181 189 189 189 189 197 189 181 189 189 189 181 189 181 189 197 181 181 181 189 189 189 181 76 83 76 76 68 43 18 35 68 140 181 181 173 181 189 181 181 189 189 189 189 189 189 181 181 165 165 165 115 27 10 58
189 189 189 189 181 181 165 165 165 115 27 10 58 132 165 157 165 181 181 165 165 173 181 181 181 181 181 181 197 189 181 165 173 181 181 181 181 181 173 173 181 181 165 181 173 165 123 58 1 1 1 1 1 1 10 83 149 173 189 181 58 1 1 1 1 1 1 10 83 149 173 189 181 181 189 181 181 189 189 189 189 189 181 189 181 189 189 181 189 197 189 181 173 165 76 76 68 76 68 51
181 189 197 189 181 173 165 76 76 68 76 68 51 27 18 35 83 149 181 165 165 181 189 189 189 189 203 203 189 181 189 181 181 181 165 107 10 10 68 157 181 149 149 173 181 181 173 181 165 157 165 181 197 181 181 173 181 189 181 165 165 165 181 181 181 173 157 165 173 181 181 181 140 165 165 181 181 181 173 157 165 173 181 181 181 140 58 1 1 1 1 1 1 1 35 107 157 189 189 181
1 1 1 1 1 1 1 35 107 157 189 189 181 181 189 189 189 189 189 189 189 189 181 181 181 189 197 197 197 197 189 181 157 91 68 68 68 76 83 58 10 10 58 107 157 165 181 181 181 181 181 197 197 189 181 181 181 189 181 165 123 76 27 27 83 132 157 165 173 173 181 181 181 189 181 181 181 181 181 181 189 189 181 181 181 189 189 181 181 181 181 181 181 189 189 181 181 181 189 181
181 181 181 181 181 181 189 189 181 181 181 189 181 189 181 181 181 181 181 189 181 181 181 165 107 18 1 1 1 1 1 1 1 27 91 149 173 181 189 189 197 197 189 189 197 189 181 181 181 181 197 189 173 181 181 181 189 181 149 76 83 76 58 58 58 51 35 10 27 35 91 132 157 165 157 149 149 157 157 149 165 165 173 181 157 140 91 58 10 1 43 91 132 157 165 165 181 181 181 91
58 10 1 43 91 132 157 165 165 181 181 181 91 58 10 1 43 91 132 157 165 165 181 181 181 181 189 197 189 181 181 197 189 181 189 197 189 181 181 197 203 197 181 173 181 181 181 181 181 157 91 10 1 1 27 58 68 68 43 18 35 99 149 157 173 181 181 189 189 181 189 189 189 189 197 189 189 189 189 197 197 181 165 165 149 99 83 68 68 76 58 35 27 18 10 27 35 58 91 107
68 68 76 58 35 27 18 10 27 35 58 91 107 115 91 76 68 76 91 83 91 99 107 91 76 107 115 91 76 68 76 91 83 91 99 107 91 76 58 35 27 35 51 91 149 157 181 189 181 165 173 181 197 189 181 181 189 189 181 181 189 189 181 181 173 181 189 181 181 173 173 173 173 181 149 115 76 35 27 51 99 149 165 157 123 83 51 43 99 149 157 173 181 181 189 189 181 181 181 189
43 99 149 157 173 181 181 189 189 181 181 181 189 197 189 181 181 197 181 173 181 181 157 99 76 83 58 51 68 68 43 10 1 10 10 10 10 51 83 58 51 68 68 43 10 1 10 10 10 10 51 83 99 91 83 83 76 68 58 68 91 91 76 91 91 99 99 91 68 83 115 149 181 197 181 165 181 181 165 181 181 181 181 181 165 173 181 189 181 181 189 189 197 181 197 189 181 165 165 173
189 181 181 189 189 197 181 197 189 181 165 165 173 149 91 58 43 76 123 149 149 157 181 181 149 99 58 51 68 99 140 157 157 165 189 189 189 189 197 189 181 181 173 189 181 189 181 157 123 91 76 197 189 181 181 173 189 181 189 181 157 123 91 76 68 76 76 68 51 27 10 1 1 1 10 68 115 149 165 157 157 165 157 123 123 149 149 140 149 149 157 157 157 132 107 83 83 107 149 165
140 149 149 157 157 157 132 107 83 83 107 149 165 189 189 189 181 181 181 181 197 189 189 197 189 189 189 189 181 181 181 189 189 181 165 181 181 181 149 99 68 76 115 149 157 165 165 157 157 181 181 165 140 99 58 58 68 115 149 157 165 181 189 181 165 140 99 58 58 68 115 149 157 165 181 189 181 181 165 181 181 181 149 149 149 140 115 107 76 91 76 68 76 83 76 35 10 1 1 1
107 76 91 76 68 76 83 76 35 10 1 1 1 1 76 157 189 181 165 181 197 189 165 173 189 181 181 165 165 165 165 157 165 149 115 68 68 83 132 181 181 157 165 189 189 181 189 189 189 181 181 181 197 189 181 173 189 197 197 189 189 181 181 149 115 91 83 107 157 165 165 173 181 189 189 189 181 115 91 83 107 157 165 165 173 181 189 189 189 181 181 173 165 132 91 58 68 99 132 140
189 189 181 181 173 165 132 91 58 68 99 132 140 157 157 173 181 181 157 140 123 115 132 149 157 165 157 140 83 76 68 76 99 68 27 10 1 1 10 58 99 165 181 165 181 181 189 181 181 181 181 189 181 181 165 165 181 181 157 149 115 76 27 35 76 107 123 157 173 165 165 181 197 203 189 181 189 189 181 181 181 181 181 181 173 165 165 157 115 91 189 181 181 181 181 181 181 173 165 165
157 115 91 189 181 181 181 181 181 181 173 165 165 157 115 91 76 99 132 165 173 165 181 181 181 181 181 181 181 173 181 189 189 173 115 58 18 51 99 132 132 149 149 140 123 115 149 165 157 157 181 189 181 173 83 91 76 83 83 58 18 1 1 1 10 51 91 165 197 189 181 181 189 189 189 189 189 197 181 181 181 181 181 181 165 157 149 91 18 1 27 58 83 83 91 99 123 140 140 149
91 18 1 27 58 83 83 91 99 123 140 140 149 157 149 173 27 58 83 83 91 99 123 140 140 149 157 149 173 189 181 165 173 181 197 189 181 181 181 140 91 76 115 165 181 181 157 165 181 189 181 181 181 181 203 189 189 181 189 181 181 123 51 10 27 68 99 107 99 99 107 140 157 173 181 181 181 181 189 197 83 83 91 76 68 35 10 1 1 10 18 51 115 165 189 197 197 203 203 189
1 1 10 18 51 115 165 189 197 197 203 203 189 189 189 197 197 197 189 189 189 189 181 173 165 149 76 18 10 197 197 189 189 189 189 181 173 165 149 76 18 10 18 35 35 27 58 99 123 123 123 115 123 123 115 123 123 132 132 149 149 157 173 165 123 91 83 107 123 132 149 157 181 181 181 181 181 181 181 189 189 189 181 181 181 197 181 149 83 27 10 35 58 83 91 115 157 189 181 165
149 83 27 10 35 58 83 91 115 157 189 181 165 181 189 189 181 165 181 76 68 76 83 76 35 10 1 10 10 10 43 123 181 189 189 189 203 203 189 189 203 197 10 43 123 181 189 189 189 203 203 189 189 203 197 197 189 189 189 189 181 165 165 181 173 107 10 1 1 35 58 68 107 149 149 149 157 149 149 132 123 115 107 107 107 115 123 91 76 83 76 76 91 99 115 132 157 173 181 181
91 76 83 76 76 91 99 115 132 157 173 181 181 165 181 181 181 181 181 189 197 203 189 181 189 189 165 107 27 1 18 58 76 107 149 181 181 181 181 189 197 189 197 197 197 76 83 76 68 58 27 1 1 1 1 197 197 197 76 83 76 68 58 27 1 1 1 1 27 76 123 173 181 181 181 189 197 197 203 189 189 189 197 203 197 189 189 197 181 173 149 83 10 1 1 18 68 123 149 173
197 181 173 149 83 10 1 1 18 68 123 149 173 181 173 181 181 181 181 181 165 149 149 157 140 123 107 68 18 10 35 68 115 149 157 165 181 197 203 189 181 189 203 189 181 189 189 181 189 197 197 189 173 99 10 1 18 68 107 115 140 165 181 181 181 181 189 197 1 18 68 107 115 140 165 181 181 181 181 189 197 197 189 181 76 91 83 76 58 35 1 1 1 1 10 83 149 181 181 173
76 58 35 1 1 1 1 10 83 149 181 181 173 197 197 181 165 181 189 189 189 189 189 189 181 181 181 181 181 181 115 10 1 1 10 76 123 165 181 181 181 165 173 181 181 181 181 181 157 157 181 173 157 115 83 58 43 58 99 149 165 173 181 181 181 181 157 181 197 189 181 173 181 189 181 189 189 189 181 115 35 197 189 181 173 181 189 181 189 189 189 181 115 35 1 1 35 91 123 149
181 189 189 189 181 115 35 1 1 35 91 123 149 165 181 181 181 173 181 189 197 197 197 68 68 76 76 51 10 1 1 1 1 10 68 149 173 181 181 189 197 197 189 197 197 197 189 197 197 181 181 189 197 197 181 132 68 1 1 1 27 107 157 181 189 181 189 189 189 197 197 189 181 189 189 189 165 157 173 181 157 107 91 107 115 132 165 165 165 181 189 189 197 189 107 91 107 115 132 165
165 165 181 189 189 197 189 107 91 107 115 132 165 165 165 181 189 189 197 189 181 181 181 181 189 197 189 181 181 197 189 123 18 1 1 35 91 132 157 165 173 181 181 181 181 181 181 181 189 58 68 76 68 27 1 1 1 1 1 27 91 149 181 181 189 189 189 203 197 189 197 197 189 189 181 181 189 189 181 181 165 149 76 10 1 1 10 91 165 181 189 189 189 197 197 197 189 189 197 197
91 165 181 189 189 189 197 197 197 189 189 197 197 181 157 181 197 181 181 157 197 197 189 189 197 197 181 157 181 197 181 181 157 132 91 83 107 140 165 181 181 181 197 189 197 197 181 181 181 165 181 197 189 189 181 197 189 132 27 1 1 1 58 123 165 165 173 181 189 197 197 189 181 181 165 68 76 83 83 58 10 1 1 1 1 27 123 181 181 181 181 189 197 189 197 189 189 181 181 181
181 181 181 181 189 197 189 197 189 189 181 181 181 181 189 189 181 181 181 189 165 107 35 1 1 10 99 181 189 181 181 189 189 165 107 35 1 1 10 99 181 189 181 181 189 189 189 189 197 197 189 181 181 181 189 189 181 173 157 165 149 132 123 132 165 181 181 165 165 181 181 181 189 181 189 197 189 181 181 189 189 189 181 140 43 1 1 1 58 123 165 189 197 197 197 203 189 189 189 181
1 58 123 165 189 197 197 197 203 189 189 189 181 173 83 99 91 76 58 43 10 1 1 10 58 132 181 189 189 181 181 189 197 197 197 189 189 181 173 165 181 181 181 181 181 173 197 197 189 189 181 173 165 181 181 181 181 181 173 181 149 83 1 1 10 83 157 181 181 181 189 189 189 189 189 197 197 181 181 181 181 181 181 189 181 173 149 149 132 149 149 165 181 173 181 181 165 165 189 197
149 132 149 149 165 181 173 181 181 165 165 189 197 181 173 181 197 197 189 181 189 189 165 83 10 1 1 43 115 157 181 181 181 197 197 197 189 189 189 189 99 107 91 68 76 68 35 1 1 18 76 132 157 157 173 181 181 181 181 35 1 1 18 76 132 157 157 173 181 181 181 181 181 181 181 181 181 189 189 181 173 189 181 181 173 165 165 123 27 1 1 83 157 181 181 181 181 189 197 197
123 27 1 1 83 157 181 181 181 181 189 197 197 203 197 197 197 189 189 189 189 189 189 189 181 165 149 149 132 132 157 165 181 181 181 181 181 173 173 181 181 173 189 189 189 181 181 181 173 83 1 1 1 35 91 149 173 181 189 189 197 197 197 189 197 189 99 83 83 76 76 76 189 197 197 197 189 197 189 99 83 83 76 76 76 58 10 1 1 43 115 165 181 165 181 181 189 181 165 157
1 1 43 115 165 181 165 181 181 189 181 165 157 165 181 181 181 181 165 181 181 181 181 173 181 165 123 35 1 1 68 140 181 181 189 197 197 189 197 197 197 189 189 189 189 197 189 189 197 197 189 181 173 149 132 123 149 157 173 181 181 181 181 181 189 189 189 189 197 181 165 181 189 181 149 68 1 1 1 18 83 149 181 189 189 189 181 149 68 1 1 1 18 83 149 181 189 189 189 197
149 68 1 1 1 18 83 149 181 189 189 189 197 203 189 181 189 189 107 91 76 83 83 76 58 27 10 1 18 76 123 173 181 165 181 181 181 165 181 157 165 181 181 165 165 165 173 173 173 173 165 173 107 18 1 1 68 132 157 181 181 189 181 189 197 197 197 197 189 189 181 181 181 189 197 189 189 181 173 157 123 76 83 132 173 181 173 165 181 189 189 181 165 173 189 197 189 189 181 173
165 181 189 189 181 165 173 189 197 189 189 181 173 165 181 189 189 181 165 173 189 197 189 189 197 189 132 76 10 1 1 18 76 132 165 181 189 197 197 189 189 189 189 189 83 76 83 91 83 76 68 43 10 10 27 58 91 123 140 149 165 173 165 165 173 165 165 165 157 157 165 165 173 181 181 157 149 149 123 58 1 1 1 99 173 181 197 189 189 197 203 197 197 197 197 203 197 197 189 189
189 189 197 203 197 197 197 197 203 197 197 189 189 189 189 197 197 189 165 107 68 76 115 149 189 189 189 189 197 197 189 165 107 68 76 115 149 173 181 181 181 189 181 181 189 181 189 189 181 181 173 189 181 107 1 1 1 10 68 132 181 189 197 197 197 197 197 197 197 189 91 91 99 91 91 76 51 35 43 58 68 76 83 68 91 140 149 157 165 165 157 157 165 157 157 165 173 165 165 157
157 165 165 157 157 165 157 157 165 173 165 165 157 157 173 181 157 140 76 1 1 10 83 157 181 181 181 189 197 203 197 197 197 197 197 197 197 181 181 181 189 197 203 197 197 197 197 197 197 197 189 189 197 197 189 197 197 181 132 43 10 58 132 157 157 157 181 173 181 189 189 189 189 189 189 189 173 181 157 91 18 1 1 1 58 149 165 189 181 189 197 197 189 189 197 197 91 76 83 99
189 181 189 197 197 189 189 197 197 91 76 83 99 91 91 51 35 43 83 132 140 123 99 83 99 115 132 149 149 157 165 181 173 165 165 165 157 181 165 165 165 181 181 157 91 1 1 1 58 149 181 165 165 165 181 181 157 91 1 1 1 58 149 189 197 197 197 197 197 197 197 197 197 197 197 203 197 197 197 197 197 197 203 203 181 107 18 10 68 140 173 173 181 173 181 197 181 181 181 181
10 68 140 173 173 181 173 181 197 181 181 181 181 181 189 181 173 149 107 43 1 1 1 35 123 181 197 197 189 197 203 189 189 189 197 83 91 99 115 99 68 35 51 76 115 157 173 157 149 123 123 123 123 115 140 157 165 157 157 157 157 173 165 123 123 123 115 140 157 165 157 157 157 157 173 165 149 149 165 181 165 149 157 149 58 1 1 51 132 181 181 189 203 203 197 197 197 197 181 189
51 132 181 181 189 203 203 197 197 197 197 181 189 197 189 189 197 197 197 197 189 189 197 181 132 35 10 43 107 157 173 189 181 181 181 181 181 181 189 189 181 181 181 181 140 68 1 1 1 43 132 181 189 189 197 197 203 203 189 181 189 83 76 91 99 91 58 51 68 99 132 149 157 165 173 173 91 99 91 58 51 68 99 132 149 157 165 173 173 157 132 107 91 123 149 157 157 157 149 149
173 173 157 132 107 91 123 149 157 157 157 149 149 165 173 181 173 181 165 165 181 157 132 68 10 1 1 91 157 189 181 181 189 197 189 189 197 197 197 197 189 181 189 197 197 203 197 197 203 197 181 123 43 10 35 115 173 189 197 181 189 189 189 189 181 197 189 189 189 165 140 83 10 1 1 27 115 165 181 189 189 189 189 189 189 197 197 76 76 115 165 181 189 189 189 189 189 189 197 197
76 76 115 165 181 189 189 189 189 189 189 197 197 76 76 83 76 68 68 68 91 140 157 149 149 157 165 165 157 149 149 132 99 99 132 157 165 157 157 181 181 181 149 165 189 173 149 149 132 76 1 1 1 99 165 165 181 189 197 203 197 189 189 197 197 197 203 197 189 189 189 189 197 189 189 189 181 149 43 1 1 83 157 181 165 173 181 189 181 189 181 181 189 189 181 173 157 107 18 1
189 181 189 181 181 189 189 181 173 157 107 18 1 1 35 189 181 181 189 189 181 173 157 107 18 1 1 35 107 149 181 189 189 189 181 189 189 197 189 76 68 76 76 68 58 68 99 132 149 157 157 165 165 181 181 189 181 157 132 115 115 115 132 165 173 157 157 173 181 181 173 157 149 157 140 83 10 1 1 51 115 157 165 181 181 189 189 197 197 197 189 197 203 197 189 197 203 181 181 181
197 197 197 189 197 203 197 189 197 203 181 181 181 197 197 189 173 115 27 1 10 99 173 173 173 181 181 189 189 173 115 27 1 10 99 173 173 173 181 181 189 189 189 189 181 181 189 189 157 99 18 1 1 1 68 132 181 181 181 181 189 189 189 181 189 76 91 83 83 58 43 58 107 149 165 181 165 181 189 197 189 181 157 157 181 181 132 91 99 123 149 157 157 157 165 165 165 173 181 165
91 99 123 149 157 157 157 165 165 165 173 181 165 123 76 10 1 10 27 76 157 181 181 173 181 197 197 197 197 189 197 189 203 203 189 189 203 197 189 181 181 197 189 197 189 203 203 189 189 203 197 189 181 181 189 189 157 58 1 1 58 149 165 165 173 189 181 173 173 181 181 181 173 173 157 99 18 1 1 1 35 99 165 189 197 189 189 203 189 181 181 68 76 68 58 43 35 43 91 149
203 189 181 181 68 76 68 58 43 35 43 91 149 173 181 181 181 197 197 181 173 181 189 181 181 157 149 132 115 115 123 140 149 157 165 165 165 157 115 91 68 27 1 1 27 58 115 165 189 189 189 189 203 197 27 1 1 27 58 115 165 189 189 189 189 203 197 181 181 197 203 197 197 197 197 197 197 197 197 197 189 181 157 83 10 1 35 99 149 181 181 189 181 181 181 189 197 189 181 157
99 149 181 181 189 181 181 181 189 197 189 181 157 140 115 58 1 1 1 27 91 157 189 203 197 189 189 189 173 140 58 76 83 68 51 51 58 107 157 181 181 181 181 189 197 203 197 197 189 181 181 189 181 165 149 115 99 115 132 132 149 149 149 115 99 76 43 149 115 99 115 132 132 149 149 149 115 99 76 43 51 43 35 10 35 83 157 181 181 181 181 181 181 181 189 197 189 189 181 203
181 181 181 181 181 181 181 189 197 189 189 181 203 197 197 189 181 181 181 189 181 157 107 35 1 1 76 149 181 173 173 181 181 173 181 189 181 157 157 140 91 43 1 1 1 1 76 149 165 149 165 189 189 165 99 43 83 68 68 58 27 27 58 99 157 181 181 181 181 189 189 189 197 181 189 181 173 181 189 173 181 181 189 189 189 197 181 189 181 173 181 189 173 157 149 123 83 58 68 107
189 181 173 181 189 173 157 149 123 83 58 68 107 115 68 58 76 76 68 58 58 51 43 35 35 68 107 165 181 181 181 181 189 203 189 197 189 189 197 189 181 165 181 173 157 173 181 157 83 10 1 10 68 115 165 181 165 173 181 181 181 173 149 132 132 140 123 91 43 10 1 10 35 91 149 181 197 189 149 91 43 10 76 76 83 76 43 10 35 107 165 197 189 43 10 76 76 83 76 43
10 35 107 165 197 189 43 10 76 76 83 76 43 10 35 107 165 197 189 197 197 197 189 189 189 197 189 189 189 189 197 197 197 189 149 68 18 27 43 43 58 58 51 58 76 76 76 76 76 58 27 18 35 107 157 173 165 181 189 197 197 181 165 165 157 149 149 107 91 99 123 107 99 91 76 35 10 1 35 99 132 149 149 149 157 173 173 165 157 149 132 132 123 123 107 99 83 43 10 35
165 157 149 132 132 123 123 107 99 83 43 10 35 83 149 157 115 68 18 123 107 99 83 43 10 35 83 149 157 115 68 18 1 1 99 99 76 68 27 10 18 107 181 189 181 181 189 197 197 189 197 197 197 197 197 181 181 189 197 189 157 68 10 10 35 51 58 58 51 58 68 68 76 83 68 43 43 43 35 35 76 99 115 132 115 123 140 132 115 91 83 91 91 76 76 99 123 107 99 107
132 115 91 83 91 91 76 76 99 123 107 99 107 115 107 68 51 51 76 76 83 123 140 149 149 157 165 165 157 149 149 157 76 83 123 140 149 149 157 165 165 157 149 149 157 149 149 132 115 91 68 43 43 58 43 10 10 1 1 1 76 83 83 58 18 10 76 149 189 189 181 181 189 197 203 197 197 197 197 197 189 197 189 189 189 181 149 76 10 1 58 76 58 58 83 83 58 58 83 76
76 10 1 58 76 58 58 83 83 58 58 83 76 68 76 83 83 68 27 10 10 35 43 43 51 58 76 68 58 76 99 107 123 149 165 165 157 157 157 157 149 140 132 99 43 123 149 165 165 157 157 157 157 149 140 132 99 43 35 43 51 83 123 140 149 157 181 165 157 165 173 181 181 181 181 149 99 58 18 10 10 1 1 1 1 1 83 107 91 43 10 35 107 149 181 189 197 197 197 203
107 91 43 10 35 107 149 181 189 197 197 197 203 203 197 197 189 197 197 189 189 181 181 189 181 149 58 10 18 58 76 68 68 91 83 83 91 83 68 83 91 91 68 58 43 18 10 10 10 35 43 43 76 99 107 149 157 165 18 10 10 10 35 43 43 76 99 107 149 157 165 157 157 149 157 157 157 157 157 140 149 165 115 43 10 10 35 99 140 149 157 181 173 165 165 181 173 165 165 173
99 140 149 157 181 173 165 165 181 173 165 165 173 181 181 157 99 18 1 1 1 1 1 1 1 91 91 68 58 58 76 123 173 181 181 181 181 181 189 189 181 189 189 189 181 181 189 197 203 197 197 181 68 1 10 58 107 91 76 58 68 83 83 76 83 76 83 83 83 76 68 76 58 68 83 83 76 83 76 83 83 83 76 68 58 43 43 68 91 132 157 157 173 181 181 173 165 165 165 181
68 91 132 157 157 173 181 181 173 165 165 165 181 181 157 157 173 165 165 157 149 132 76 10 1 35 107 140 149 149 165 181 181 181 181 189 197 189 181 173 189 181 115 27 10 1 1 1 1 1 1 68 76 68 58 91 123 157 181 181 181 197 197 197 189 197 197 203 203 203 203 203 197 203 203 197 181 132 58 10 18 68 91 91 203 197 203 203 197 181 132 58 10 18 68 91 91 76 76 91
203 197 181 132 58 10 18 68 91 91 76 76 91 107 83 83 91 91 68 68 76 76 68 58 43 58 99 149 173 181 173 181 181 181 165 165 181 181 181 173 149 157 173 181 173 173 149 123 58 10 1 18 91 132 165 173 181 189 181 189 197 203 197 189 181 181 189 189 149 68 10 1 10 1 1 1 1 76 68 83 83 91 123 173 181 189 189 189 197 203 197 197 197 197 203 197 197 181 189 189
189 197 203 197 197 197 197 203 197 197 181 189 189 189 197 203 197 197 197 197 203 197 197 197 197 197 189 189 181 132 51 1 10 83 115 99 91 91 91 91 107 91 83 83 107 99 99 83 58 51 58 99 157 181 181 157 181 189 189 181 181 181 165 165 181 181 165 157 157 173 165 165 149 132 76 10 1 1 43 149 181 165 173 181 197 197 197 197 197 197 197 197 197 181 165 91 10 1 1 1
197 197 197 197 197 197 181 165 91 10 1 1 1 1 1 1 76 51 58 76 115 149 181 1 1 1 1 1 1 76 51 58 76 115 149 181 181 181 189 197 203 203 203 203 197 197 197 203 203 197 189 197 197 203 189 132 68 18 27 76 107 107 83 76 83 91 99 115 91 91 91 107 107 91 51 43 83 132 165 181 173 173 189 197 189 181 181 173 157 157 181 181 181 173 157 173 173 181 165 123
173 157 157 181 181 181 173 157 173 173 181 165 123 43 1 1 1 58 123 165 181 181 189 197 203 197 197 203 197 197 189 197 197 165 76 10 197 203 197 197 203 197 197 189 197 197 165 76 10 1 1 1 1 1 10 58 58 27 27 91 157 189 189 189 197 203 197 203 197 197 197 197 197 181 189 197 197 189 189 189 189 149 58 10 35 76 107 91 83 76 99 107 91 83 91 91 91 99 99 76
91 83 76 99 107 91 83 91 91 91 99 99 76 68 83 107 140 157 157 181 197 181 181 165 181 181 165 165 173 165 181 181 181 181 157 173 189 181 132 58 1 1 1 27 91 149 181 181 189 189 181 132 58 1 1 1 27 91 149 181 181 189 197 189 197 197 197 203 203 203 197 189 181 115 35 1 1 1 1 1 10 58 35 18 18 76 140 181 197 181 197 203 197 197 197 203 197 203 197 189
181 197 181 197 203 197 197 197 203 197 203 197 189 197 197 197 203 203 181 181 165 91 27 27 76 99 91 91 99 107 91 58 68 91 91 68 76 99 91 76 76 99 157 181 165 157 173 181 189 181 181 165 181 181 165 165 165 181 181 181 165 181 181 181 165 181 181 165 165 165 181 181 181 165 181 181 173 132 68 10 1 1 27 99 140 165 189 189 197 197 197 197 203 197 197 197 197 197 181 140
189 197 197 197 197 203 197 197 197 197 197 181 140 58 1 1 1 1 1 18 83 43 18 27 68 123 149 165 181 189 189 181 189 197 203 203 197 197 203 197 189 189 181 189 197 197 181 115 58 51 68 91 91 83 99 83 68 83 91 83 83 83 83 76 83 83 83 115 149 181 181 165 157 157 181 83 76 83 83 83 115 149 181 181 165 157 157 181 181 189 181 173 165 165 173 181 165 157 149 157
181 181 189 181 173 165 165 173 181 165 157 149 157 173 173 165 149 91 10 1 1 1 83 140 165 189 189 189 189 189 189 197 197 197 197 197 189 181 115 35 1 1 1 1 1 35 91 68 58 43 43 83 132 181 197 189 181 189 203 197 197 203 197 197 197 197 197 197 197 197 197 197 189 157 115 68 68 83 83 83 91 91 91 83 83 99 107 83 68 68 83 83 83 91 91 91 83 83 99 107
83 68 68 83 83 83 91 91 91 83 83 99 107 83 68 76 91 83 83 99 132 157 181 181 181 181 173 165 181 181 181 181 189 189 189 181 173 181 181 189 181 173 140 91 35 1 1 1 68 140 157 181 189 189 203 197 203 203 197 189 197 197 197 181 123 27 1 1 1 1 10 58 76 91 58 35 51 51 68 107 157 181 189 181 181 197 189 189 197 197 189 197 197 189 181 189 189 181 181 157
189 197 197 189 197 197 189 181 189 189 181 181 157 99 197 197 189 197 197 189 181 189 189 181 181 157 99 58 51 91 99 91 68 83 99 91 83 91 91 83 83 83 76 83 91 107 140 157 165 157 173 181 181 189 181 181 181 181 181 197 197 189 189 189 181 181 189 189 181 107 18 1 1 1 51 132 181 181 181 181 197 203 197 197 197 203 197 197 203 189 132 58 1 1 1 1 10 68 68 76
197 203 189 132 58 1 1 1 1 10 68 68 76 68 83 76 43 18 58 123 181 197 189 189 197 197 189 83 76 43 18 58 123 181 197 189 189 197 197 189 189 189 197 203 189 181 181 189 189 189 181 149 99 51 35 58 76 91 83 76 83 76 83 91 99 91 76 68 76 83 83 99 149 165 157 165 181 181 181 181 189 189 181 189 181 189 197 197 197 197 203 197 203 197 181 115 18 1 1 1
197 197 197 203 197 203 197 181 115 18 1 1 1 51 115 181 197 197 197 189 189 197 189 181 189 189 189 197 181 123 35 1 1 1 1 10 68 58 58 58 197 181 123 35 1 1 1 1 10 68 58 58 58 76 91 83 58 35 83 132 165 181 189 197 197 203 197 197 197 197 189 189 181 181 181 181 181 157 99 27 35 68 68 51 68 83 76 58 76 91 107 91 83 83 83 68 68 91 123 157
58 76 91 107 91 83 83 83 68 68 91 123 157 189 181 181 181 181 165 165 181 189 189 189 181 189 189 181 181 189 181 181 181 149 76 10 1 1 1 51 123 173 181 181 197 203 197 197 197 189 189 189 197 123 173 181 181 197 203 197 197 197 189 189 189 197 189 181 165 76 1 1 1 1 35 68 76 58 68 68 68 76 83 58 58 91 140 181 197 189 197 203 203 203 197 189 189 197 181 165
181 197 189 197 203 203 203 197 189 189 197 181 165 157 181 189 140 68 18 27 43 51 58 83 83 83 76 83 91 91 83 76 91 91 58 27 58 83 132 165 189 197 189 189 181 197 203 189 189 189 189 197 197 197 197 197 197 189 189 165 83 1 1 1 1 58 197 197 197 197 189 189 165 83 1 1 1 1 58 132 181 181 181 181 203 189 181 189 189 189 181 181 189 181 157 83 10 1 1 1
189 189 189 181 181 189 181 157 83 10 1 1 1 43 91 68 68 68 83 91 91 76 68 58 58 91 132 157 181 189 189 189 181 189 197 197 197 197 189 181 181 157 76 27 27 58 58 68 83 91 91 99 99 99 115 115 107 123 115 99 58 10 10 35 107 157 181 189 181 189 197 189 189 197 197 189 197 189 189 181 189 181 189 197 189 189 197 197 189 197 189 189 197 197 197 197 197 189 149 68
197 189 197 189 189 197 197 197 197 197 189 149 68 1 1 1 10 76 132 157 181 197 189 181 181 189 189 197 189 181 181 189 181 165 107 10 1 10 18 43 83 91 91 83 83 91 91 99 91 58 35 58 91 132 165 173 173 189 197 189 189 181 197 197 203 189 165 107 35 1 10 58 91 115 123 123 123 149 149 149 140 132 149 173 165 140 91 51 10 18 68 115 149 140 132 149 173 165 140 91
51 10 18 68 115 149 140 132 149 173 165 140 91 51 10 18 68 115 157 173 181 197 197 189 189 189 197 197 197 203 197 197 197 197 197 203 189 165 83 10 1 1 1 58 132 165 181 189 197 197 197 197 189 197 189 181 165 181 197 181 123 35 1 1 10 58 115 91 83 83 76 91 107 99 76 76 83 68 68 76 107 165 189 189 181 189 189 189 181 157 157 165 132 58 1 10 27 91 140 149
189 181 157 157 165 132 58 1 10 27 91 140 149 165 181 181 165 173 132 58 1 10 27 91 140 149 165 181 181 165 173 181 181 181 189 189 181 181 157 123 68 18 43 107 149 149 173 181 181 181 189 189 181 181 189 197 197 197 203 203 197 203 197 165 83 1 1 1 10 83 132 173 189 181 189 181 181 189 197 197 197 197 181 181 189 181 123 43 1 1 43 91 99 68 58 83 83 76 76 76
